<?xml version="1.0" encoding="utf-8"?>
<!-- Generator: Adobe Illustrator 16.0.3, SVG Export Plug-In . SVG Version: 6.00 Build 0)  -->
<!DOCTYPE svg PUBLIC "-//W3C//DTD SVG 1.1//EN" "http://www.w3.org/Graphics/SVG/1.1/DTD/svg11.dtd">
<svg version="1.1" id="Ebene_1" xmlns="http://www.w3.org/2000/svg" xmlns:xlink="http://www.w3.org/1999/xlink" x="0px" y="0px"
	 width="500px" height="437.501px" viewBox="0 0 500 437.501" enable-background="new 0 0 500 437.501" xml:space="preserve">
<g>
	<polygon points="185.92,56.649 178.938,40.353 175.388,41.873 178.53,49.212 173.006,42.894 169.454,44.415 176.434,60.712 
		179.986,59.191 176.813,51.782 182.196,58.244 	"/>
	<polygon points="197.479,52.59 196.332,49.232 193.122,50.328 191.862,46.639 194.594,45.706 193.505,42.514 190.771,43.447 
		189.686,40.266 192.605,39.268 191.458,35.91 184.165,38.4 189.894,55.179 	"/>
	<path d="M215.874,47.802l-2.142-17.719l-4.366,1.048c0.379,4.131,0.941,8.312,1.689,12.547l-2.073-6.439
		c-1.054-3.224-1.673-5.079-1.857-5.568l-4.666,1.122c0.51,5.037,1.044,9.08,1.601,12.129l-1.857-5.705l-1.919-5.901l-4.366,1.049
		l6.155,16.757l5.579-1.341c-0.445-4.737-0.752-7.849-0.92-9.342c1.205,3.285,2.382,6.188,3.533,8.714L215.874,47.802z"/>
	<path d="M231.366,30.425c0.335-0.032,0.563,0.058,0.683,0.269c0.121,0.211,0.224,0.763,0.312,1.654l0.299,3.067l4.599-0.45
		l-0.164-1.676c-0.161-1.646-0.417-2.847-0.771-3.6c-0.353-0.753-0.995-1.348-1.929-1.784c-0.931-0.437-2.076-0.588-3.43-0.456
		c-0.998,0.098-1.865,0.353-2.6,0.766c-0.736,0.413-1.292,0.935-1.667,1.565c-0.376,0.631-0.577,1.269-0.602,1.913
		c-0.025,0.646,0.024,1.603,0.148,2.874l0.504,5.156c0.168,1.729,0.438,3.011,0.806,3.844c0.367,0.834,1.012,1.451,1.935,1.852
		c0.921,0.401,2.056,0.537,3.403,0.404c1.296-0.126,2.36-0.52,3.188-1.181c0.829-0.661,1.336-1.387,1.52-2.177
		c0.183-0.789,0.186-2.097,0.007-3.923l-0.067-0.688l-4.6,0.449l0.218,2.218c0.095,0.968,0.102,1.59,0.022,1.862
		c-0.081,0.273-0.292,0.425-0.634,0.458c-0.356,0.034-0.6-0.073-0.726-0.326c-0.128-0.251-0.233-0.805-0.318-1.663l-0.801-8.196
		c-0.086-0.894-0.093-1.48-0.017-1.759C230.76,30.621,230.988,30.462,231.366,30.425"/>
	<polygon points="246.601,26.925 241.98,27 242.266,44.728 246.887,44.652 246.767,37.207 248.15,37.184 248.27,44.63 
		252.891,44.556 252.604,26.828 247.983,26.902 248.086,33.242 246.703,33.265 	"/>
	<path d="M259.604,27.1l-3.54,17.533l4.768,0.32l0.49-3.161l1.65,0.11l0.032,3.196l4.714,0.317l-1.45-17.867L259.604,27.1z
		 M261.475,38.651c0.225-1.558,0.687-4.015,1.383-7.371c0.038,2.965,0.105,5.458,0.205,7.477L261.475,38.651z"/>
	<path d="M276.465,39.396l1.228,0.179c1,0.146,1.829,0.126,2.488-0.057c0.659-0.183,1.142-0.515,1.45-0.994
		c0.306-0.479,0.541-1.279,0.705-2.399l0.223-1.528c0.161-1.099,0.22-1.917,0.176-2.459c-0.041-0.541-0.205-1.021-0.487-1.438
		c-0.283-0.417-0.746-0.772-1.387-1.065c-0.642-0.293-1.584-0.531-2.831-0.713l-4.605-0.675l-2.565,17.545l4.574,0.667
		L276.465,39.396z M277.559,31.918c0.594,0.087,0.972,0.234,1.134,0.442s0.198,0.612,0.11,1.211l-0.211,1.441
		c-0.095,0.649-0.237,1.067-0.432,1.248c-0.192,0.182-0.499,0.242-0.919,0.181c-0.095-0.013-0.206-0.033-0.336-0.061L277.559,31.918
		z"/>
	<polygon points="290.776,49.386 293.887,35.55 296.563,36.152 297.341,32.689 287.487,30.475 286.709,33.936 289.377,34.536 
		286.268,48.373 	"/>
	<polygon points="296.806,50.915 304.481,53.22 305.503,49.822 302.253,48.846 303.375,45.112 306.14,45.943 307.109,42.711 
		304.345,41.882 305.312,38.662 308.268,39.549 309.287,36.151 301.905,33.934 	"/>
	<path d="M320.781,48.476c0.491-0.319,0.985-1.124,1.481-2.411c0.543-1.411,0.71-2.525,0.503-3.344
		c-0.206-0.818-0.64-1.445-1.299-1.879c-0.661-0.434-2.009-1.042-4.044-1.825l-3.053-1.175l-6.368,16.547l4.313,1.659l2.872-7.46
		c0.594,0.228,0.921,0.475,0.979,0.741c0.06,0.264-0.084,0.84-0.424,1.725l-2.115,5.5l4.006,1.541l1.68-4.364
		c0.514-1.335,0.793-2.165,0.835-2.489s-0.016-0.721-0.174-1.187c-0.157-0.468-0.622-0.971-1.394-1.511
		C319.557,48.818,320.29,48.795,320.781,48.476 M318.413,44.114l-0.351,0.91c-0.278,0.729-0.542,1.124-0.788,1.181
		c-0.247,0.059-0.611-0.006-1.097-0.192l1.416-3.68c0.498,0.193,0.811,0.406,0.935,0.642
		C318.653,43.209,318.614,43.589,318.413,44.114"/>
	<path d="M139.92,331.228c28.404,27.667,67.246,44.714,110.08,44.714c43.084,0,82.129-17.249,110.575-45.201
		C287.083,324.152,213.446,324.483,139.92,331.228"/>
	<path d="M158.597,166.71l-0.188,2.571l-0.222,0.214c-0.055,0.354-0.175,0.701-0.343,1.032c0.179,0.375,0.38,0.746,0.564,1.002
		l1.608-0.069c0.304-0.683,0.508-1.145,0.508-1.145l-0.103-7.837l-1.46,1.631L158.597,166.71z"/>
	<path d="M229.867,127.145c-0.731-0.478-3.015-0.718-2.376,0.08c0.639,0.797,11.33,14.675,11.33,15.231l3.166,3.002l1.921-0.32
		c0,0-0.481-2.235-0.88-2.874c-0.401-0.639-4.207-6.108-4.207-6.108C237.268,135.121,230.599,127.623,229.867,127.145"/>
	<path d="M359.967,132.748c0.408,0.319,6.486,5.903,6.849,6.023c0.368,0.12,1.555,0.119,1.555,0.119
		c-2.1-2.074-7.4-7.179-8.314-7.577c-0.913-0.399-6.943-0.797-7.399-1.435c-0.456-0.639-4.978-8.616-5.481-8.974
		c-0.501-0.361-4.427-3.43-4.427-3.43s2.329,5.583,2.467,6.142c0.136,0.559-0.048,2.871-0.275,2.632
		c-0.227-0.239-4.156-10.369-4.431-11.008c-0.273-0.638-2.193-2.55-2.193-2.55s12.061,37.322,11.694,36.604
		c-0.364-0.718-5.845-14.753-6.348-15.151c-0.505-0.399-2.832-1.759-2.832-1.759l-9.685-31.739c0,0-10.417,15.151-12.059,17.863
		c-0.82,1.348-2.95,2.619-4.886,3.556l-0.035,0.047c-0.191,1.391-0.699,2.75-1.505,3.891c0.121,1.84-0.559,3.655-1.814,5.095
		c-0.026,0.149-0.058,0.295-0.096,0.439c-0.331,1.264-1.045,2.288-1.969,3.104c-0.143,3.05-1.823,6.04-4.061,8.059
		c-1.501,1.356-1.823,2.011-2.424,3.847c-0.423,1.297-0.893,2.408-1.676,3.542c-0.618,0.895-1.402,1.923-2.323,2.758
		c-0.326,1.14-0.948,2.156-1.779,2.989l-0.831,4.072l-1.899,3.433c0.468-0.024,0.934-0.052,1.4-0.082l2.018-3.591l1.601-3.075
		l2.202-2.914c0,0,1.281-0.637,1.6-1.117c0.321-0.479,0.801-1.438,0.801-1.438l1.348-0.723l3.481-6.749l0.322-0.623l1.97-0.675
		c0,0-2.727,11.308-2.273,13.333c0.247,1.094,1.377,3.963,2.389,6.689c0.784,0.142,1.535,0.414,2.187,0.916
		c1.957,1.513,2.272,3.691,1.681,5.73c0.657,1.205,0.854,2.61,0.602,4.012c0.907,1.465,1.292,3.172,0.813,4.952
		c0.158,0.208,0.31,0.413,0.452,0.612c0.738,1.033,1.093,2.225,1.119,3.432l4.242,0.153l1.365-13.164l1.361-0.843l0.977,14.631
		l0.107,0.08c0.024-0.1,0.048-0.192,0.069-0.28l0.221-0.885l2.669-1.936l2.743,1.99l0.107,1.129c0.015,0.142,0.04,0.379,0.079,0.619
		c0.555,0.001,1.066,0.142,1.642,0.632c0.619,0.528,0.946,1.301,0.924,2.105c-0.021,0.792-0.25,1.413-0.62,1.994
		c0,0.173-0.016,0.341-0.046,0.504c0.751,0.082,1.422,0.412,1.904,1.071c0.169,0.23,0.296,0.482,0.381,0.749l0.319,0.084
		c0.085-0.212,0.201-0.421,0.354-0.62c0.596-0.778,1.563-1.133,2.518-0.978c0.376-0.011,0.94-0.352,1.213-0.557
		c0.254-0.193,0.528-0.685,0.756-1.207c-0.037-0.091-0.071-0.185-0.101-0.283c-0.044-0.138-0.07-0.263-0.09-0.381
		c-0.683-0.566-1.183-1.319-1.26-2.171c-1.164-1.23-1.652-3.021-0.3-4.336c1.394-1.357,2.249-0.217,3.557-1.608
		c0.194-0.206,0.438-0.506,0.67-0.837c-0.12-0.188-0.218-0.396-0.293-0.625c-0.028-0.086-0.052-0.173-0.069-0.258
		c-0.062-0.081-0.123-0.164-0.176-0.25l-2.271-3.528l0.916-0.072l-0.337-0.992c-0.227-0.318-0.355-0.533-0.355-0.607
		c0-0.639-1.096-8.215-1.278-8.692c-0.183-0.479-1.826-2.954-1.918-3.91c-0.092-0.958,0-11.485,0-11.485s5.206,9.651,5.391,10.687
		c0.082,0.477,0.166,1.542,0.276,2.617l3.127,2.668c0.128-0.52,0.249-1.042,0.362-1.562l0.186-0.842l2.829-2.346l2.848,2.361
		l0.088,1.049c0.031,0.361,0.121,1.236,0.28,1.851c0.709-0.063,1.392,0.093,1.984,0.547c0.71,0.543,1.075,1.374,1.055,2.25
		c-0.025,1.03-0.324,1.772-0.803,2.52c0.015,0.119,0.022,0.243,0.022,0.381c0,0.559-0.177,1.08-0.449,1.555
		c0.033,0.094,0.067,0.182,0.105,0.252c0.062-0.003,0.123-0.009,0.17-0.011c0.992-0.053,1.883,0.184,2.544,0.99
		c0.485,0.592,0.677,1.353,0.562,2.101c-0.15,0.972-0.556,1.548-1.074,2.142c-0.021,0.332-0.105,0.669-0.251,1.004
		c-0.128,0.294-0.3,0.555-0.509,0.78c0.183,0.547,0.404,1.091,0.557,1.446c0.297,0.688,0.979,1.244,1.752,1.267
		c0.995-0.061,1.796,0.32,2.334,0.932c0.239-0.323,0.47-0.737,0.668-1.164c-0.06-0.123-0.114-0.252-0.159-0.389
		c-0.062-0.191-0.101-0.36-0.121-0.518c-0.845-0.617-1.486-1.475-1.543-2.472c-1.362-1.295-2.023-3.239-0.465-4.654
		c0.939-0.856,1.758-0.674,2.68-0.878c-0.983-2.325-2.062-4.702-2.062-4.702h0.959l2.82,3.712c0.271-0.27,0.63-0.69,0.963-1.146
		c-0.2-0.25-0.356-0.548-0.459-0.895c-0.021-0.073-0.04-0.147-0.054-0.222c-0.086-0.098-0.167-0.202-0.24-0.308l-2.529-3.612
		l0.986-0.072l-0.658-1.71l3.428,0.136c0.308-0.318,0.675-0.943,0.98-1.548c-0.4-0.698-0.602-1.493-0.41-2.245
		c-0.253-0.653-0.426-1.34-0.514-1.955l-0.916-6.328l0.897,0.716c-0.376-2.112-0.707-3.697-0.907-3.947
		c-0.64-0.796-3.746-2.232-4.019-2.949c-0.276-0.717-5.891-12.682-5.436-12.682C355.212,132.071,359.552,132.43,359.967,132.748
		 M339.126,141.805c0,0-2.009-2.393-2.468-3.19c-0.456-0.798-2.737-5.98-2.737-5.98l0.088-6.938l1.463,1.634l0.317,4.387
		c0,0,1.875,1.794,2.057,2.272c0.185,0.478,3.564,10.288,3.564,10.288l0.184,3.427L339.126,141.805z"/>
	<path d="M227.308,147.401l0.051,1.352c0.476-0.113,0.96-0.179,1.443-0.189c1.44-0.035,3.088,0.231,4.565,0.469
		c-2.048-3.008-12.563-18.348-12.867-17.741c-0.319,0.638-0.228,3.508-0.046,4.147C220.636,136.077,227.216,145.01,227.308,147.401"
		/>
	<path d="M193.246,189.965l-4.078-7.903l-2.226-0.762c0,0,1.5,6.22,2.232,10.756c1.349-0.393,2.738-0.986,4.01-1.665
		C193.198,190.248,193.218,190.106,193.246,189.965"/>
	<path d="M401.466,369.849c-38.761,38.669-92.314,62.588-151.466,62.588c-59.151,0-112.703-23.919-151.466-62.588
		c-9.432-9.408-17.986-19.693-25.535-30.72c-1.857,0.268-3.715,0.541-5.573,0.819c8.058,12.058,17.284,23.271,27.517,33.479
		c39.684,39.588,94.504,64.073,155.057,64.073c60.553,0,115.375-24.485,155.056-64.073c10.363-10.335,19.693-21.705,27.822-33.939
		c-1.852-0.279-3.702-0.56-5.554-0.835C419.698,349.859,411.034,360.305,401.466,369.849"/>
	<path d="M35.806,220.953c-0.008-0.732-0.011-1.468-0.011-2.203c0-59.008,23.976-112.43,62.739-151.099
		C137.297,28.982,190.847,5.065,250,5.065c59.152,0,112.705,23.917,151.466,62.586c38.765,38.669,62.739,92.091,62.739,151.099
		c0,0.735-0.005,1.471-0.011,2.203h5.078c0.007-0.732,0.012-1.468,0.012-2.203c0-60.406-24.546-115.093-64.229-154.68
		C365.374,24.484,310.553,0,250,0C189.447,0,134.626,24.484,94.943,64.07c-39.682,39.586-64.226,94.273-64.226,154.68
		c0,0.735,0.004,1.471,0.011,2.203H35.806z"/>
	<path d="M87.266,337.147c-1.426,0.192-2.853,0.39-4.278,0.581c6.586,9.188,13.917,17.808,21.904,25.775
		c37.136,37.047,88.439,59.961,145.108,59.961c56.668,0,107.973-22.914,145.106-59.961c8.132-8.109,15.584-16.898,22.263-26.272
		c-1.423-0.199-2.844-0.397-4.265-0.591c-6.256,8.599-13.178,16.685-20.688,24.179c-36.447,36.358-86.8,58.847-142.416,58.847
		c-55.617,0-105.968-22.488-142.415-58.847C100.219,353.474,93.424,345.559,87.266,337.147"/>
	<path d="M455.202,220.953c0.007-0.732,0.012-1.468,0.012-2.203c0-56.53-22.971-107.71-60.106-144.756
		C357.973,36.948,306.668,14.035,250,14.035c-56.667,0-107.972,22.914-145.107,59.959C67.756,111.04,44.786,162.22,44.786,218.75
		c0,0.735,0.004,1.471,0.012,2.203h3.808c-0.008-0.732-0.011-1.468-0.011-2.203c0-19.85,2.9-39.021,8.275-57.133
		c0.73,0.069,1.552,0.026,2.27,0.026c2.82,0,5.602-0.172,8.413-0.419c0.997-0.088,3.185,0.01,3.14-1.149
		c-0.043-1.142-2.449-0.884-3.513-0.887c-2.198-0.005-6.079,0.29-8.337,0.497c-0.538,0.049-1.004,0.074-1.433,0.12
		c3.193-10.396,7.214-20.429,11.977-30.032c1.1,0.209,2.595,0.186,3.076,0.165c1.065-0.049,4.222,0.16,3.993-1.247
		c-0.172-1.046-3.548-0.933-4.449-0.928c-0.432,0.002-1.033-0.006-1.633,0.031c4.531-8.888,9.702-17.398,15.458-25.461
		c1.395,0.459,4.42,0.031,5.576,0.037c2.717,0.015,5.944-0.152,8.669-0.153c3.834-0.001,10.092-0.133,13.646,0.05h17.791
		c0.897,0,2.245-0.085,3.147-0.239c1.342-0.23,2.131-0.79,0.366-1.216c-1.603-0.386-4.508-0.429-6.33-0.436
		c-4.354-0.017-8.769-0.306-13.14-0.306c-7.062,0-20.17-0.207-27.043,0.662c-0.41,0.053-1.091,0.119-1.715,0.28
		c5.392-7.425,11.273-14.475,17.61-21.087c0.803-0.05,1.619-0.114,2.376-0.137l7.938-0.453c0.663-0.061,1.309-0.07,1.424-0.703
		c0.14-0.772-0.283-1.006-0.922-1.074c-2.277-0.239-5.732-0.072-8.123,0.034c-0.141,0.006-0.281,0.009-0.421,0.013
		c0.303-0.306,0.599-0.62,0.904-0.923C144.032,40.321,194.383,17.834,250,17.834c54.894,0,104.651,21.917,140.981,57.449
		c-4.023-0.039-9.734,0.218-12.179,0.102c-1.565-0.074-3.409-0.087-5.038-0.099c-4.892-0.036-9.997-0.322-14.776-0.407
		c-1.169-0.021-14.618-0.859-15.549,0.252c0.063,0.134-0.162,0.099,0.218,0.352c0.085,0.055,0.255,0.103,0.365,0.137l2.554,0.459
		c1.214,0.146,2.505,0.245,3.681,0.324c12.366,0.841,24.982,1.548,37.378,0.751c0.723-0.047,2.967-0.139,4.852-0.403
		c13.628,13.608,25.31,29.159,34.593,46.198c-3.477,0.009-8.095,0.469-9.296,0.581c-3.89,0.365-19.602,2.135-23.077,3.183
		c-0.35,0.106-1.542,0.417-1.322,0.967c0.166,0.412,1.63,0.393,2.094,0.393c2.027,0,17.248-1.834,19.685-2.105
		c1.603-0.178,9.104-0.887,12.82-1.312c5.313,9.982,9.807,20.462,13.394,31.355c-1.584-0.674-5.377-0.211-5.696,0.547
		c-0.62,1.47,1.735,1.395,2.819,1.326c1.117-0.071,2.723,0.029,3.319-0.514c6.218,19.35,9.586,39.971,9.586,61.38
		c0,0.735-0.003,1.471-0.013,2.203H455.202z"/>
	<path d="M307.849,183.998c-0.993-1.386-1.707-1.98-1.707-1.98s2.262-1.782-0.438-4.079c0,0,1.628-2.497-0.795-3.487
		c0,0,1.748-2.099,0.518-3.05c-1.23-0.949-16.173-3.561-26.02-4.116c-0.542-0.029-1.073-0.087-1.603-0.165
		c-0.192-0.422-0.177-0.916,0.854-1.025c1.865-0.197,1.983-3.009,1.983-3.009c1.47-0.396,1.39-2.932,1.39-2.932
		c2.896-0.395,3.255-3.92,3.255-3.92c2.938-0.634,2.7-3.169,2.7-3.169s0.795-0.079,2.384-2.376c1.586-2.297,0.714-3.961,4.049-6.972
		c3.335-3.01,2.264-6.218,2.264-6.218c2.739-1.226,1.944-2.852,1.944-2.852c2.622-1.702,1.229-3.96,1.229-3.96
		c1.908-1.11,3.729-3.058,3.729-3.058c2.938-2.535,0.951-6.376,0.951-6.376c0.952-0.832,0.397-1.981,0.397-1.981
		c3.215-1.941,1.508-5.031,1.508-5.031s1.906-1.425,1.985-3.408c0.08-1.979-1.867-2.098-1.867-2.098s3.06-3.248,2.462-5.148
		c-0.596-1.902-2.938-1.546-2.938-1.546c3.493-2.218,1.477-8.033-0.312-6.922c-1.786,1.108-3.771,1.98-3.771,1.98
		c6.234-4.674,5.756-9.783,5.24-9.072c-0.515,0.713-1.79,4.283-5.563,7.134c-3.771,2.853-2.674,1.532-2.674,1.532
		c10.166-8.635,5.954-16.388,5.636-16.388c-0.317,0-0.694,0.456-0.694,0.456c-3.204,9.962-9.138,16.971-9.138,16.971
		c8.432-13.551,4.651-25.051,4.175-24.892c-0.478,0.158-0.637,0.99-0.637,0.99c-4.685,14.892-8.236,21.141-8.236,21.141
		c7.51-15.307,1.686-25.38,1.25-25.123c-0.438,0.257-0.498,1.03-0.498,1.03c-0.793,15.685-4.583,25.103-4.583,25.103
		c6.512-19.33-1.889-24.291-2.386-24.151c-0.496,0.137-0.396,0.515-0.396,0.515c1.748,14.416-1.724,28.112-1.724,28.112
		c3.971-18.536-4.55-19.517-4.907-19.002c-0.356,0.515-0.316,1.466-0.316,1.466c1.965,15.044,0.854,17.787-4.379,26.025
		c-1.895,2.983-1.397,4.35-5.627,10.574c-9.69,14.259-11.993,23.369-15.645,30.339c-3.649,6.963-9.752,7.195-9.766,7.195
		c-1.127-0.201-1.359-0.282-2.336-0.642c0,0,1.601-0.157,2.46-0.702c0.87-0.552,0-0.312-2.885-0.365
		c-1.827-0.033-5.836-0.95-7.544-0.91c-1.708,0.04-3.018,1.663-3.018,1.663s-6.61,0.952-3.751,6.733c0,0,0.089,0.208,0.268-0.019
		s0.913-0.912,1.737-0.752c0,0,0.288,0.287,0.745,0.435c0.456,0.148,3.127,0.515,5.866,2.772c2.741,2.257,2.582,2.416,1.946,3.485
		c0,0-1.545,1.422-3.927,2.533c-2.382,1.108-7.286,3.307-11.216,6.989c-3.931,3.685-10.879,7.289-14.136,8.12
		c-3.254,0.833-2.382,2.179-1.071,2.1c0,0-4.922,3.801-10.005,4.079c-5.083,0.277,3.334,2.654,8.457,0.752
		c0,0-0.158,0.793-1.746,1.466c-1.589,0.674,2.461,1.228,6.591-0.91c0,0-1.231,2.137-1.152,2.692
		c0.08,0.556,4.089,0.001,6.194-1.069c0,0,3.296,1.663,6.512-0.198c0,0,3.334,1.703,5.757,0.159c0,0,4.525,0.396,5.678-0.952
		c0,0,2.303,1.625,5.599-0.119c0,0,3.852,0.396,4.765-1.267c0,0,5.995,0.634,7.066-2.061c0,0,1.748-0.197,2.343-1.306
		c0,0,1.787-0.477,2.303-1.387c0,0,2.622-0.476,3.455-2.02c0,0,2.819-0.317,3.255-1.545c0,0,1.551-0.396,1.588-1.425
		c0,0,1.986-0.714,1.509-2.298c0,0,3.106-0.255,4.247-1.827c4.975,0.686,4.921,0.759,7.642,3.474
		c3.017,3.01,10.454,12.156,12.519,12.868c2.066,0.713,1.708-1.109,1.708-1.109s2.422,1.031,3.972,0.832
		c1.548-0.198,1.111-1.029,1.111-1.029s3.178,0.712,4.286,0.435c1.112-0.278,1.152-0.911,1.152-0.911s3.02,0.239,4.09-0.237
		c1.072-0.476,0.597-1.229,0.597-1.229s1.706,0.357,2.421-0.197c0.714-0.555-0.2-1.703-0.2-1.703s1.826-0.159,0.876-1.863
		c0,0,1.11-0.554,0.714-1.504C307.569,187.088,308.84,185.384,307.849,183.998"/>
	<path d="M242.483,78.864c1.781-0.003,7.472,0.005,8.75-0.893c-0.023-0.488-0.17-0.588-0.601-0.74
		c-1.467-0.519-6.494-0.362-8.044-0.358c-3.234,0.006-6.5-0.003-9.751-0.003c-3.681,0-10.841,0.068-14.393-0.194
		c-0.66-0.047-4.66-0.381-3.553,0.904C216.636,79.612,237.815,78.873,242.483,78.864"/>
	<path d="M381.1,105.114c-2.591-0.249-5.545-0.189-8.241-0.189c-2.611-0.003-5.603,0.058-8.179,0.236
		c-3.847,0.266-8.009,0.405-11.779,0.907c-0.985,0.131-2.751,0.236-3.072,1.053c0.386,0.862,3.481,0.614,4.235,0.614
		c2.662,0,5.504-0.252,8.141-0.308c2.842-0.06,18.112-0.537,20.084-1.026C383.862,106.011,383.142,105.311,381.1,105.114"/>
	<path d="M261.187,56.489c-0.844,0.037-2.732,0.01-2.93,0.891c0.161,1.011,6.652,0.967,7.951,1.036s25.771,0.765,24.702-1.838
		c-0.347-0.385-0.625-0.22-1.019-0.4h-2.713c-0.416,0.167-13.452,0.324-14.814,0.248C270.499,56.322,263.489,56.392,261.187,56.489"
		/>
	<path d="M116.637,125.899c-1.185,0.085-4.587,0.061-4.977,1.078c0.275,0.544,1.023,0.593,1.685,0.673
		c3.422,0.424,11.538-0.209,14.851-0.462c0.013-0.001,13.773-0.567,10.611-1.964C136.161,124.055,120.031,125.656,116.637,125.899"
		/>
	<path d="M440.763,184.091c0.211,0.784,1.432,0.513,2.02,0.75h2.375h1.984v-0.671V183.4c-0.59-0.632-1.188-0.6-2.203-0.667
		C443.912,182.664,440.308,182.383,440.763,184.091"/>
	<path d="M426.323,156.646c-1.407,0.269-0.952,1.321-0.792,1.515c0.34,0.416,1.523,0.517,2.212,0.517
		c1.077,0,2.755,0.106,2.755-1.115C430.498,156.155,427.271,156.466,426.323,156.646"/>
	<path d="M259.715,78.401c0.479,0.596,3.067,0.607,3.576-0.061c0.221-0.292,0.165-0.974-0.059-1.243
		c-0.229-0.268-0.696-0.332-1.121-0.385C259.358,76.373,259.194,77.753,259.715,78.401"/>
	<path d="M393.954,107.021c0.227-0.462,0.269-1.376-0.938-1.556c-3.066-0.457-2.146,1.629-2.052,1.744
		c0.167,0.201,0.618,0.292,0.962,0.34C392.672,107.651,393.69,107.552,393.954,107.021"/>
	<path d="M331.706,77.567c0.97-0.048,1.549-0.137,1.486-1.238c-0.052-0.896-0.985-0.99-1.851-0.928
		c-0.945,0.067-1.51,0.281-1.384,1.333C330.049,77.48,331.002,77.603,331.706,77.567"/>
	<path d="M123.358,76.717c-0.761,0.142-1.054,0.637-0.781,1.522c0.264,0.856,3.121,1.077,2.501-0.987
		C124.908,76.682,124.002,76.599,123.358,76.717"/>
	<polygon points="141.968,374.92 146.5,368.253 143.957,376.27 147.307,378.547 157.274,363.883 154.078,361.711 149.59,368.313 
		151.935,360.255 148.739,358.083 138.772,372.748 	"/>
	<polygon points="167.154,373.721 168.893,370.628 162.175,366.851 153.486,382.307 160.471,386.233 162.211,383.141 
		159.253,381.477 161.165,378.079 163.681,379.494 165.333,376.556 162.817,375.138 164.464,372.208 	"/>
	<path d="M180.613,395.593l8.955-15.439l-4.117-1.791c-2.183,3.526-4.252,7.204-6.203,11.035l2.222-6.39
		c1.097-3.209,1.72-5.064,1.869-5.564l-4.402-1.914c-2.625,4.329-4.632,7.88-6.022,10.649l1.952-5.672l2.018-5.869l-4.118-1.789
		l-5.171,17.084l5.262,2.287c2.497-4.049,4.125-6.72,4.888-8.013c-1.013,3.348-1.822,6.376-2.423,9.085L180.613,395.593z"/>
	
		<rect x="192.827" y="390.808" transform="matrix(-0.2651 0.9642 -0.9642 -0.2651 634.2164 302.8688)" width="17.73" height="4.621"/>
	<path d="M222.631,406.655l3.176-17.443l-5.917-1.077l-2.527,7.955l0.161-4.554c0.075-1.457,0.12-2.727,0.136-3.808l-5.883-1.071
		l-3.177,17.444l3.975,0.723l2.101-11.505l-0.425,11.811l2.818,0.512l3.727-11.488l-2.14,11.778L222.631,406.655z"/>
	<path d="M238.897,390.711c-0.658-0.25-1.617-0.425-2.871-0.524l-4.641-0.369l-1.405,17.675l4.608,0.365l0.565-7.116l1.236,0.097
		c1.007,0.08,1.833,0.008,2.479-0.22c0.646-0.229,1.106-0.591,1.38-1.088c0.275-0.498,0.457-1.313,0.546-2.438l0.123-1.541
		c0.087-1.107,0.092-1.927,0.014-2.466c-0.079-0.536-0.273-1.004-0.583-1.402C240.042,391.285,239.557,390.962,238.897,390.711
		 M237.104,394.776l-0.115,1.452c-0.052,0.654-0.168,1.079-0.35,1.273c-0.18,0.194-0.482,0.274-0.905,0.24
		c-0.095-0.008-0.208-0.019-0.338-0.039l0.358-4.496c0.598,0.047,0.984,0.17,1.159,0.366
		C237.089,393.771,237.153,394.171,237.104,394.776"/>
	<path d="M252.565,402.558l0.095,5.891l4.291-0.069l-0.074-4.675c-0.023-1.431-0.076-2.304-0.158-2.62
		c-0.082-0.317-0.284-0.663-0.604-1.038c-0.321-0.374-0.941-0.666-1.859-0.878c1.009-0.11,1.681-0.407,2.017-0.887
		s0.493-1.411,0.472-2.789c-0.025-1.512-0.285-2.607-0.783-3.29c-0.499-0.682-1.136-1.101-1.908-1.256
		c-0.775-0.155-2.254-0.216-4.434-0.18l-3.27,0.053l0.286,17.728l4.621-0.074l-0.129-7.994c0.637-0.012,1.032,0.095,1.185,0.32
		C252.466,401.022,252.55,401.609,252.565,402.558 M251.081,397.719l-0.063-3.941c0.533-0.01,0.903,0.073,1.107,0.245
		s0.312,0.538,0.319,1.101l0.016,0.974c0.013,0.783-0.084,1.245-0.29,1.392C251.965,397.633,251.602,397.71,251.081,397.719"/>
	<polygon points="269.998,389.643 262.323,390.35 263.947,408.005 271.928,407.271 271.602,403.737 268.225,404.048 
		267.868,400.166 270.743,399.902 270.434,396.543 267.559,396.806 267.251,393.46 270.321,393.177 	"/>
	<path d="M282.897,402.974c-0.305,0.054-0.531-0.002-0.683-0.168s-0.286-0.577-0.4-1.23l-0.376-2.124l-4.228,0.745l0.201,1.144
		c0.232,1.309,0.544,2.295,0.938,2.96c0.392,0.665,1.058,1.15,2.001,1.458c0.942,0.31,2.022,0.355,3.241,0.14
		c1.108-0.194,2.048-0.567,2.813-1.113c0.766-0.546,1.242-1.141,1.43-1.781c0.188-0.643,0.173-1.584-0.048-2.826
		c-0.301-1.712-0.783-2.906-1.445-3.584c-0.662-0.675-2.112-1.435-4.35-2.276c-0.779-0.291-1.271-0.571-1.475-0.841
		c-0.21-0.267-0.366-0.69-0.47-1.274c-0.08-0.453-0.068-0.804,0.032-1.051c0.102-0.247,0.289-0.396,0.562-0.445
		c0.253-0.044,0.448,0.007,0.586,0.153c0.136,0.146,0.258,0.52,0.366,1.125l0.229,1.295l4.227-0.748l-0.123-0.688
		c-0.244-1.387-0.554-2.347-0.925-2.879c-0.374-0.53-1.01-0.913-1.909-1.147c-0.9-0.234-1.941-0.246-3.122-0.039
		c-1.081,0.191-1.973,0.529-2.675,1.013c-0.703,0.483-1.171,1.065-1.404,1.743c-0.232,0.68-0.23,1.687,0.004,3.024
		c0.164,0.929,0.42,1.668,0.767,2.223c0.346,0.554,0.734,0.969,1.162,1.241c0.427,0.272,1.271,0.683,2.535,1.23
		c1.263,0.54,2.064,0.944,2.409,1.209c0.336,0.268,0.596,0.915,0.778,1.942c0.083,0.468,0.07,0.833-0.036,1.097
		C283.403,402.762,283.199,402.92,282.897,402.974"/>
	<path d="M299.275,399.319c-0.298,0.082-0.529,0.045-0.695-0.106c-0.166-0.152-0.337-0.548-0.511-1.188l-0.564-2.083l-4.143,1.122
		l0.305,1.12c0.348,1.284,0.746,2.237,1.196,2.865c0.451,0.626,1.159,1.052,2.125,1.273c0.967,0.222,2.046,0.17,3.24-0.151
		c1.088-0.296,1.988-0.749,2.702-1.363c0.713-0.611,1.134-1.247,1.265-1.901c0.13-0.656,0.029-1.593-0.302-2.813
		c-0.454-1.676-1.042-2.822-1.761-3.438c-0.72-0.612-2.233-1.239-4.537-1.875c-0.803-0.222-1.317-0.457-1.543-0.704
		c-0.233-0.249-0.428-0.658-0.583-1.23c-0.121-0.442-0.141-0.793-0.063-1.05c0.078-0.254,0.251-0.42,0.52-0.492
		c0.248-0.067,0.447-0.034,0.596,0.099c0.15,0.135,0.305,0.496,0.465,1.088l0.345,1.269l4.144-1.122l-0.184-0.677
		c-0.369-1.36-0.762-2.287-1.181-2.782c-0.42-0.496-1.087-0.82-2.004-0.973c-0.917-0.153-1.955-0.07-3.113,0.243
		c-1.061,0.287-1.918,0.703-2.572,1.246c-0.657,0.546-1.071,1.167-1.243,1.864c-0.17,0.697-0.08,1.699,0.276,3.011
		c0.247,0.909,0.567,1.625,0.963,2.145c0.394,0.521,0.817,0.898,1.267,1.132c0.449,0.232,1.328,0.566,2.637,0.999
		c1.307,0.426,2.142,0.753,2.508,0.988c0.36,0.234,0.677,0.857,0.95,1.863c0.123,0.459,0.145,0.824,0.063,1.096
		C299.761,399.063,299.571,399.239,299.275,399.319"/>
	
		<rect x="308.368" y="380.368" transform="matrix(-0.9425 0.3342 -0.3342 -0.9425 733.5863 652.2413)" width="4.622" height="17.729"/>
	<path d="M327.943,380.499c-0.741-1.67-1.301-2.819-1.677-3.45c-0.378-0.632-0.902-1.138-1.575-1.518
		c-0.674-0.381-1.418-0.559-2.237-0.534c-0.818,0.024-1.662,0.229-2.533,0.615c-0.915,0.408-1.651,0.914-2.206,1.52
		c-0.556,0.605-0.912,1.279-1.067,2.02c-0.156,0.74-0.122,1.467,0.104,2.178c0.223,0.712,0.696,1.882,1.42,3.51l1.231,2.771
		c0.74,1.669,1.3,2.819,1.676,3.451s0.902,1.137,1.575,1.517c0.672,0.381,1.419,0.559,2.237,0.534
		c0.817-0.023,1.661-0.229,2.531-0.615c0.915-0.407,1.651-0.913,2.207-1.519c0.557-0.606,0.911-1.279,1.067-2.021
		c0.154-0.739,0.122-1.466-0.102-2.178c-0.225-0.712-0.698-1.881-1.421-3.509L327.943,380.499z M326.192,389.759
		c-0.279,0.125-0.508,0.094-0.682-0.092c-0.176-0.187-0.472-0.75-0.89-1.69l-3.36-7.566c-0.369-0.834-0.535-1.362-0.494-1.586
		c0.041-0.22,0.172-0.381,0.394-0.478c0.261-0.118,0.48-0.087,0.657,0.085c0.177,0.173,0.433,0.637,0.768,1.391l3.308,7.447
		c0.424,0.954,0.65,1.575,0.685,1.864C326.608,389.423,326.481,389.632,326.192,389.759"/>
	<polygon points="347.582,381.709 338.906,366.245 335.536,368.137 339.442,375.1 333.276,369.403 329.907,371.295 338.583,386.758 
		341.952,384.867 338.009,377.838 344.048,383.689 	"/>
	<path d="M356.288,372.921c-0.252,0.174-0.482,0.217-0.69,0.127c-0.207-0.087-0.498-0.404-0.875-0.952l-1.222-1.778l-3.537,2.433
		l0.657,0.956c0.753,1.094,1.445,1.863,2.078,2.307c0.633,0.441,1.441,0.606,2.426,0.496c0.986-0.109,1.989-0.516,3.009-1.217
		c0.928-0.639,1.628-1.365,2.098-2.18c0.47-0.813,0.657-1.552,0.562-2.214c-0.094-0.661-0.499-1.513-1.216-2.553
		c-0.983-1.433-1.917-2.318-2.8-2.659c-0.882-0.342-2.517-0.431-4.903-0.271c-0.83,0.059-1.393,0.007-1.69-0.152
		c-0.302-0.156-0.619-0.479-0.955-0.966c-0.262-0.379-0.396-0.702-0.407-0.969c-0.01-0.268,0.099-0.48,0.328-0.639
		c0.211-0.146,0.41-0.18,0.596-0.104c0.185,0.077,0.452,0.367,0.798,0.872l0.745,1.082l3.537-2.43l-0.396-0.578
		c-0.799-1.161-1.477-1.905-2.036-2.236c-0.56-0.327-1.297-0.411-2.214-0.253c-0.915,0.161-1.867,0.582-2.855,1.261
		c-0.906,0.622-1.577,1.299-2.015,2.03c-0.439,0.731-0.624,1.455-0.556,2.168c0.07,0.715,0.489,1.632,1.258,2.751
		c0.535,0.776,1.074,1.344,1.619,1.704c0.545,0.361,1.068,0.577,1.571,0.647c0.502,0.072,1.44,0.096,2.817,0.069
		c1.373-0.031,2.271,0.003,2.695,0.102c0.417,0.104,0.921,0.585,1.513,1.445c0.269,0.391,0.409,0.728,0.423,1.012
		C356.66,372.517,356.542,372.746,356.288,372.921"/>
	<path d="M440.246,228.631c0.061-0.032,0.11-0.062,0.179-0.096c1.357-0.681,0.988-1.92,0.619-2.304
		c-0.367-0.379,0.454-0.717,0.975-1.249c0.521-0.53,1.055-1.908,0.625-2.463c-0.426-0.557-1.335,1.018-3.965-0.706
		c-2.628-1.722-3.175-4.211-3.214-4.65c-0.04-0.44,1.305-0.509,1.541-0.901c0.237-0.396-0.526-0.834-0.488-1.136
		c0.041-0.3,1.543-0.555,1.793-1.295c0.251-0.739-0.566,0.022-0.75-0.439c-0.185-0.463,0.855-1.874,0.633-2.939
		c-0.227-1.065-0.647,2.199-3.742-0.485c-1.257-1.088-1.551-2.376-1.456-3.522c0,0,0.993,0.143,1.442-0.157
		c0.447-0.299-0.462-0.578-0.633-1.227c-0.171-0.647,1.885-0.37,2.477-2.244c0.593-1.874-1.5,1.11-5.953-5.461
		c0,0,1.17-0.045,1.33-0.416c0.157-0.371-0.199-0.718-0.237-1.25c-0.039-0.532,1.593-0.717,1.976-1.967c0,0,0.184-0.81-0.355-0.763
		c-0.54,0.047-3.057-0.208-4.149-2.916c-1.094-2.707-1.055-3.957-1.055-3.957s0.845-0.022,1.016-0.439
		c0.17-0.417-0.226-0.44-0.131-0.742c0.089-0.299,1.13-1.086,1.249-1.896c0.119-0.811-2.752,1.388-3.544-3.68
		c0,0,0.647-0.683,0.647-1.018c0-0.336-0.232-0.763-0.159-0.995c0.07-0.232,0.896-0.96,0.922-2.094
		c0.025-1.104-2.708,2.331-3.241-4.571l-0.389-0.343l-0.515,0.455c-0.201,0.977-0.764,3.612-1.085,4.147
		c-0.396,0.659-0.981,1.053-1.72,0.381c0,0,0.198,1.482,0.751,2.244c0,0-0.159,0.347-0.343,0.395
		c-0.186,0.045,0.343,0.902,0.699,1.088c0,0-1.357,4.187-2.899,4.116c0,0,0.251,0.741,0.83,0.788c0,0-0.118,0.37-0.394,0.394
		c0,0,0.289,0.485,0.671,0.347c0,0,0.078,0.323-0.133,0.647c-0.21,0.325,0.555,0.417,1.002,0.116
		c0.448-0.301-0.172,2.129-1.95,4.143c-1.779,2.012-3.268,1.457-3.557,1.757c-0.291,0.301,0.856,1.527,1.437,1.505
		c0.579-0.022-0.262,0.417-0.396,0.832c-0.132,0.417,0.949,0.972,1.186,1.042c0.238,0.07-0.051,0.902,0.028,1.182
		c0.043,0.158,0.323,0.233,0.621,0.248c-0.036,0.143-0.175,0.667-0.409,1.306c-0.858,0-2.015-0.372-3.591-1.547
		c-2.084-1.552-2.569-3.388-2.412-5.021c0,0,1.648,0.205,2.391-0.224c0.743-0.429-0.767-0.825-1.049-1.748
		c-0.285-0.924,3.125-0.527,4.108-3.2c0.982-2.672-2.49,1.583-9.879-7.787c0,0,1.944-0.065,2.208-0.594
		c0.261-0.528-0.33-1.022-0.395-1.781c-0.066-0.759,2.645-1.023,3.281-2.805c0,0,0.302-1.155-0.594-1.088
		c-0.896,0.065-5.07-0.298-6.884-4.157c-1.814-3.861-1.75-5.641-1.75-5.641s1.4-0.035,1.685-0.628s-0.372-0.627-0.219-1.057
		c0.153-0.428,1.881-1.55,2.077-2.704c0.195-1.155-4.569,1.98-5.881-5.245c0,0,1.072-0.974,1.072-1.453
		c0-0.479-0.383-1.088-0.262-1.418c0.119-0.33,1.485-1.369,1.527-2.985c0.044-1.573-4.491,3.323-5.377-6.519l-0.645-0.488
		l-0.854,0.648c-0.335,1.393-1.269,5.15-1.8,5.912c-0.656,0.94-1.63,1.501-2.854,0.544c0,0,0.327,2.111,1.245,3.2
		c0,0-0.262,0.494-0.569,0.56c-0.303,0.066,0.569,1.288,1.16,1.552c0,0-2.251,5.971-4.808,5.871c0,0,0.414,1.056,1.378,1.122
		c0,0-0.199,0.529-0.657,0.561c0,0,0.479,0.694,1.114,0.495c0,0,0.131,0.464-0.218,0.925c-0.35,0.462,0.917,0.593,1.66,0.165
		c0.744-0.43-0.284,3.035-3.234,5.907c-0.194,0.188-0.385,0.358-0.574,0.516c-0.013-0.078-0.027-0.159-0.031-0.232
		c-1.151-0.694-2.086-1.744-2.059-3.017c-1.289-1.035-2.367-2.637-1.522-4.313c0.169-0.332,0.403-0.624,0.688-0.864
		c0.426-0.355,0.844-0.527,1.271-0.623l-10.377-10.657l-1.736-0.4l3.016,7.257c0.083,0.054,0.165,0.112,0.247,0.178
		c0.681,0.552,1.026,1.374,1.005,2.235c-0.032,1.193-0.411,2.01-0.996,2.845c0.022,0.15,0.035,0.308,0.035,0.49
		c0,0.641-0.229,1.231-0.572,1.758c0.105,0.31,0.231,0.586,0.366,0.678c0.08,0.03,0.313,0.015,0.396,0.011
		c1.143-0.05,2.121,0.038,2.906,1.05c0.462,0.599,0.636,1.347,0.514,2.085c-0.188,1.117-0.694,1.741-1.318,2.394
		c-0.013,0.384-0.11,0.774-0.292,1.159c-0.171,0.367-0.403,0.672-0.681,0.926c0.237,0.685,0.539,1.381,0.738,1.812
		c0.189,0.411,0.496,0.782,0.866,1.073c0.6-0.889,1.65-1.284,2.692-1.104c0.618,0.091,1.463-0.152,2.21-0.475
		c-0.092,0.21-0.814,0.639-0.968,1.056c-0.219,0.595,1.574,1.386,1.967,1.485c0.396,0.099-0.085,1.286,0.046,1.682
		c0.074,0.227,0.54,0.335,1.031,0.354c-0.148,0.517-1.324,4.376-3.546,5.915c-2.381,1.649-4.415,1.682-5.137,1.552
		c-0.722-0.133,1.399,1.814,2.209,1.681c0.808-0.132-0.153,0.727-0.374,1.518c-0.218,0.792,0.636,0.726,0.941,0.989
		c0.306,0.264-0.284,1.683,0.306,2.046c0.591,0.363,1.946-0.331,2.208-0.264c0.181,0.045-2.063,3.42-4.146,5.573
		c-1.195-0.654-2.765-1.937-4.705-4.612c0,0,1.442-0.053,1.635-0.479c0.197-0.425-0.241-0.824-0.289-1.435
		c-0.048-0.611,1.96-0.825,2.431-2.26c0,0,0.228-0.931-0.437-0.878c-0.666,0.053-3.763-0.238-5.105-3.347
		c-1.347-3.11-1.296-4.545-1.296-4.545s1.035-0.027,1.246-0.504c0.211-0.479-0.275-0.506-0.162-0.851
		c0.113-0.346,1.393-1.25,1.54-2.18c0.146-0.93-3.389,1.595-4.358-4.226c0,0,0.792-0.784,0.792-1.17
		c0-0.384-0.284-0.876-0.194-1.141c0.09-0.266,1.103-1.104,1.137-2.407c0.029-1.267-3.331,2.678-3.99-5.25l-0.476-0.393
		l-0.637,0.522c-0.245,1.122-0.938,4.149-1.333,4.764c-0.485,0.756-1.206,1.208-2.114,0.438c0,0,0.242,1.701,0.923,2.577
		c0,0-0.192,0.399-0.42,0.452c-0.229,0.053,0.42,1.036,0.858,1.249c0,0-1.671,4.81-3.565,4.731c0,0,0.307,0.85,1.021,0.904
		c0,0-0.145,0.425-0.487,0.452c0,0,0.358,0.559,0.828,0.398c0,0,0.096,0.372-0.162,0.744c-0.259,0.373,0.68,0.478,1.23,0.134
		c0.551-0.347-0.21,2.444-2.397,4.756c-2.188,2.314-4.02,1.675-4.376,2.021c-0.355,0.346,1.053,1.753,1.767,1.728
		c0.712-0.027-0.323,0.478-0.485,0.957c-0.162,0.478,1.165,1.115,1.457,1.195c0.292,0.08-0.063,1.036,0.034,1.356
		c0.055,0.183,0.398,0.271,0.765,0.285c-0.109,0.416-0.981,3.525-2.631,4.764c-1.764,1.33-3.271,1.356-3.808,1.25
		c-0.533-0.106,1.038,1.461,1.638,1.354c0.6-0.106-0.114,0.585-0.277,1.223c-0.162,0.639,0.472,0.585,0.7,0.798
		c0.224,0.213-0.211,1.355,0.224,1.648c0.44,0.292,1.443-0.267,1.638-0.212c0.074,0.02-0.39,0.84-1.076,1.862
		c-1.002-0.3-2.648-1.179-4.899-4.5c0,0,1.174-0.045,1.329-0.416c0.159-0.371-0.196-0.718-0.236-1.25
		c-0.039-0.532,1.595-0.717,1.976-1.967c0,0,0.187-0.81-0.355-0.763c-0.537,0.047-3.056-0.208-4.148-2.916
		c-1.095-2.707-1.055-3.957-1.055-3.957s0.844-0.022,1.017-0.439c0.171-0.417-0.225-0.44-0.134-0.742
		c0.093-0.299,1.135-1.086,1.252-1.896c0.119-0.811-2.752,1.388-3.544-3.68c0,0,0.645-0.683,0.645-1.018
		c0-0.336-0.229-0.763-0.156-0.995c0.072-0.232,0.895-0.96,0.921-2.094c0.025-1.104-2.707,2.331-3.241-4.571l-0.388-0.343
		l-0.517,0.455c-0.2,0.977-0.764,3.612-1.084,4.147c-0.396,0.659-0.981,1.053-1.72,0.381c0,0,0.198,1.482,0.75,2.244
		c0,0-0.157,0.347-0.342,0.395c-0.185,0.045,0.342,0.902,0.698,1.088c0,0-1.356,4.187-2.896,4.116c0,0,0.251,0.741,0.829,0.788
		c0,0-0.119,0.37-0.396,0.394c0,0,0.291,0.485,0.67,0.347c0,0,0.082,0.323-0.13,0.647c-0.21,0.325,0.553,0.417,1.002,0.116
		c0.447-0.301-0.171,2.129-1.95,4.143c-1.778,2.012-3.267,1.457-3.559,1.757c-0.288,0.301,0.857,1.527,1.438,1.505
		c0.579-0.022-0.264,0.417-0.396,0.832c-0.131,0.417,0.948,0.972,1.187,1.042c0.237,0.07-0.054,0.902,0.026,1.182
		c0.044,0.158,0.324,0.233,0.623,0.248c-0.092,0.362-0.801,3.069-2.138,4.147c-1.437,1.157-2.662,1.181-3.098,1.088
		c-0.435-0.092,0.844,1.271,1.333,1.18c0.484-0.093-0.095,0.509-0.226,1.064c-0.132,0.556,0.382,0.509,0.567,0.694
		c0.183,0.185-0.172,1.18,0.183,1.435c0.355,0.254,1.174-0.231,1.331-0.185c0.159,0.046-2.753,4.999-3.992,5.136
		c-1.236,0.14,0.119,0.741-0.011,1.065c-0.134,0.323-1.45,0.786-1.952,0.648c-0.262-0.074-0.076,0.62,0.404,1.24
		c-0.679-0.463-1.497-1.205-2.459-2.447c0,0,0.932-0.032,1.06-0.291c0.125-0.258-0.157-0.5-0.19-0.87
		c-0.031-0.372,1.269-0.5,1.573-1.371c0,0,0.146-0.563-0.284-0.532c-0.431,0.033-2.429-0.145-3.3-2.031
		c-0.87-1.887-0.838-2.757-0.838-2.757s0.669-0.016,0.807-0.306c0.135-0.291-0.179-0.306-0.105-0.516
		c0.074-0.209,0.901-0.758,0.997-1.322c0.094-0.563-2.19,0.968-2.821-2.564c0,0,0.514-0.475,0.514-0.709
		c0-0.232-0.183-0.533-0.125-0.693c0.057-0.162,0.711-0.668,0.734-1.459c0.021-0.77-2.154,1.625-2.58-3.185l-0.308-0.239
		l-0.411,0.316c-0.16,0.682-0.607,2.516-0.863,2.89c-0.313,0.46-0.779,0.734-1.366,0.266c0,0,0.157,1.032,0.597,1.565
		c0,0-0.125,0.241-0.272,0.274s0.272,0.629,0.556,0.757c0,0-1.079,2.919-2.304,2.87c0,0,0.198,0.516,0.658,0.549
		c0,0-0.095,0.257-0.314,0.274c0,0,0.23,0.338,0.535,0.241c0,0,0.061,0.226-0.105,0.452c-0.169,0.227,0.439,0.29,0.796,0.081
		c0.357-0.21-0.136,1.483-1.551,2.886c-1.414,1.403-2.599,1.016-2.829,1.226c-0.23,0.209,0.68,1.064,1.142,1.047
		c0.461-0.016-0.21,0.29-0.313,0.581c-0.105,0.29,0.753,0.677,0.943,0.725c0.187,0.048-0.044,0.628,0.02,0.823
		c0.035,0.111,0.26,0.164,0.496,0.172c-0.072,0.252-0.637,2.14-1.701,2.89c-1.143,0.806-2.116,0.823-2.462,0.758
		c-0.347-0.065,0.671,0.886,1.058,0.822c0.389-0.063-0.074,0.355-0.179,0.742c-0.104,0.387,0.305,0.354,0.451,0.483
		c0.146,0.13-0.137,0.823,0.146,1.001c0.284,0.177,0.934-0.162,1.059-0.131c0.126,0.033-2.188,3.485-3.175,3.583
		c-0.983,0.097,0.096,0.512-0.009,0.739c-0.104,0.227-1.153,0.547-1.551,0.454c-0.401-0.099,0.492,1.754,1.863,1.465
		c0,0-0.282,0.549-0.137,0.822c0.147,0.274,0.672,0.371,0.944,0.338c0.271-0.032-1.321,3.031-2.704,3.579
		c-1.021,0.405-0.855,0.547-0.672,0.735h-14.474c-1.134-1.66-2.055-3.018-2.055-3.018s-12.084-9.421-13.605-10.859
		c-1.521-1.438-3.68-4.152-4.16-5.11c-0.481-0.957-2.48-1.437-2.883-1.996c-0.399-0.56-3.36-3.193-4.081-4.231
		c-0.72-1.038-3.28-3.992-3.28-3.992s-2.882-0.479-3.202-1.517c-0.318-1.036-6.297-5.382-6.297-5.382
		c-1.103,1.053-2.544,1.803-4.008,2.25c-0.712,0.61-1.566,1.091-2.438,1.442c-0.165,0.158-0.339,0.306-0.521,0.448
		c0.017,0.032,0.033,0.059,0.052,0.082c0.513,0.714,13.67,15.336,14.579,16.39c0.905,1.056,2.725,5.544,1.629,4.412
		c-0.888-0.915-14.972-13.807-20.156-18.324c-0.312,0.177-0.638,0.334-0.975,0.476c1.006,2.223,2.344,5.318,1.504,4.375
		c-0.468-0.529-1.85-2.072-3.367-3.778c-1.448,0.342-2.983,0.457-4.417,0.427c-1.741,1.144-4.072,1.496-6.171,1.426
		c-0.824,0.334-1.702,0.584-2.595,0.726c2.682,4.486,4.929,8.139,5.547,8.857c1.782,2.069,14.349,13.736,11.764,12.414
		c-2.585-1.315-16.29-6.82-18.917-10.041c-0.783-0.958-3.288-5.192-6.427-10.736c-0.793,0.052-1.576,0.051-2.31,0.018
		c-2.279,0.937-4.966,0.851-7.332,0.083c-2.38,0.844-5.105,0.921-7.525,0.194c-0.546,0.195-1.104,0.361-1.656,0.506
		c-0.255,0.067-0.515,0.131-0.777,0.19l0.948,1.718l0.515,7.244l1.882,2.289l0,4.003l-6.502-4.958l-0.686-8.388l-0.76-1.473
		c-1.305-0.157-2.52-0.664-3.239-1.719c-0.227,0.034-0.453,0.063-0.679,0.087c-0.879,0.094-1.81,0.124-2.689,0.011
		c-1.181-0.152-2.278-0.641-3.02-1.469c-1.089,0.015-2.332-0.028-3.564-0.184c-0.846,2.241-1.776,4.704-2.332,6.497
		c0.241,0.184,0.448,0.408,0.609,0.671c0.229,0.091,0.447,0.214,0.646,0.368c1.631,1.27,1.026,3.362-0.179,4.586
		c-0.25,0.254-0.526,0.478-0.823,0.665c0.132,0.149,0.255,0.268,0.357,0.339c0.39,0.148,0.781,0.317,1.127,0.548
		c0.545,0.364,0.951,0.873,1.146,1.46c0.159,0.065,0.302,0.118,0.4,0.147c0.618,0.166,1.159,0.531,1.532,1.047
		c1.174,1.626,0.237,3.616-1.292,4.705c-0.064,0.318-0.182,0.629-0.35,0.914c-0.426,0.728-0.954,1.093-1.57,1.339
		c-0.18,0.382-0.458,0.725-0.868,1.02c-0.162,0.116-0.316,0.207-0.469,0.282c-0.082,0.145-0.183,0.295-0.309,0.448
		c-0.275,0.333-0.588,0.562-0.924,0.722c-1.098-1.068-2.059-2.993-1.842-2.968c0.273,0.033,0.796-0.063,0.944-0.338
		c0.146-0.273-0.137-0.822-0.137-0.822c1.373,0.289,2.264-1.563,1.866-1.465c-0.398,0.093-1.446-0.228-1.551-0.454
		c-0.104-0.228,0.975-0.643-0.01-0.739c-0.985-0.098-3.302-3.55-3.175-3.583c0.125-0.031,0.775,0.309,1.057,0.131
		c0.284-0.178,0-0.871,0.147-1.001c0.146-0.129,0.556-0.096,0.451-0.483c-0.106-0.387-0.566-0.806-0.179-0.742
		c0.388,0.064,1.405-0.887,1.059-0.822c-0.346,0.064-1.321,0.048-2.463-0.758c-1.065-0.75-1.629-2.638-1.701-2.89
		c0.237-0.008,0.459-0.061,0.496-0.172c0.063-0.195-0.168-0.775,0.02-0.823c0.189-0.048,1.048-0.435,0.944-0.725
		c-0.105-0.291-0.776-0.597-0.315-0.581c0.461,0.017,1.374-0.838,1.142-1.047c-0.229-0.21-1.414,0.178-2.829-1.226
		c-1.415-1.403-1.907-3.096-1.551-2.886c0.356,0.209,0.964,0.146,0.797-0.081c-0.169-0.226-0.105-0.452-0.105-0.452
		c0.303,0.098,0.535-0.241,0.535-0.241c-0.22-0.017-0.314-0.274-0.314-0.274c0.46-0.033,0.66-0.549,0.66-0.549
		c-1.227,0.049-2.307-2.87-2.307-2.87c0.284-0.128,0.703-0.725,0.556-0.757s-0.272-0.274-0.272-0.274
		c0.439-0.533,0.597-1.565,0.597-1.565c-0.586,0.469-1.054,0.194-1.368-0.266c-0.254-0.374-0.702-2.208-0.863-2.89l-0.41-0.316
		l-0.31,0.239c-0.424,4.81-2.599,2.416-2.577,3.185c0.021,0.791,0.675,1.297,0.733,1.459c0.058,0.16-0.126,0.46-0.126,0.693
		c0,0.234,0.514,0.709,0.514,0.709c-0.628,3.532-2.914,2-2.819,2.564c0.094,0.563,0.921,1.112,0.995,1.322
		c0.074,0.21-0.241,0.226-0.105,0.516c0.136,0.29,0.808,0.306,0.808,0.306s0.03,0.871-0.839,2.757
		c-0.869,1.887-2.872,2.064-3.301,2.031c-0.43-0.031-0.283,0.532-0.283,0.532c0.304,0.871,1.604,1,1.572,1.371
		c-0.031,0.371-0.313,0.612-0.188,0.87c0.126,0.258,1.059,0.291,1.059,0.291c-0.961,1.244-1.779,1.985-2.459,2.448
		c0.481-0.62,0.666-1.314,0.404-1.241c-0.5,0.138-1.817-0.325-1.949-0.648c-0.131-0.325,1.226-0.926-0.013-1.065
		c-1.238-0.137-4.15-5.09-3.992-5.136c0.158-0.046,0.975,0.439,1.33,0.185c0.356-0.255,0-1.25,0.185-1.435
		c0.184-0.185,0.699-0.138,0.565-0.694c-0.131-0.556-0.71-1.158-0.223-1.064c0.487,0.091,1.765-1.272,1.33-1.18
		c-0.434,0.093-1.66,0.069-3.096-1.088c-1.338-1.079-2.048-3.786-2.138-4.147c0.298-0.015,0.578-0.089,0.623-0.248
		c0.079-0.279-0.211-1.112,0.026-1.182c0.237-0.069,1.317-0.625,1.187-1.042c-0.133-0.416-0.976-0.854-0.396-0.832
		c0.579,0.022,1.725-1.204,1.436-1.505c-0.291-0.3-1.78,0.255-3.558-1.757c-1.778-2.014-2.397-4.443-1.949-4.143
		c0.448,0.3,1.212,0.208,1.002-0.116c-0.211-0.324-0.133-0.647-0.133-0.647c0.382,0.139,0.672-0.347,0.672-0.347
		c-0.277-0.024-0.395-0.394-0.395-0.394c0.58-0.047,0.83-0.788,0.83-0.788c-1.542,0.071-2.899-4.116-2.899-4.116
		c0.355-0.187,0.882-1.043,0.698-1.088c-0.184-0.047-0.343-0.395-0.343-0.395c0.554-0.762,0.752-2.244,0.752-2.244
		c-0.738,0.671-1.325,0.277-1.719-0.381c-0.322-0.535-0.884-3.17-1.085-4.147l-0.516-0.455l-0.387,0.343
		c-0.535,6.902-3.267,3.467-3.241,4.571c0.025,1.134,0.849,1.862,0.921,2.094c0.072,0.231-0.159,0.658-0.159,0.995
		c0,0.335,0.646,1.018,0.646,1.018c-0.791,5.067-3.663,2.869-3.544,3.68c0.12,0.81,1.161,1.596,1.253,1.896
		c0.091,0.302-0.304,0.326-0.133,0.742c0.171,0.417,1.016,0.439,1.016,0.439s0.038,1.25-1.055,3.957
		c-1.093,2.708-3.609,2.963-4.15,2.916c-0.539-0.046-0.355,0.763-0.355,0.763c0.382,1.25,2.017,1.435,1.977,1.967
		c-0.039,0.532-0.395,0.88-0.237,1.25c0.159,0.37,1.331,0.416,1.331,0.416c-2.25,3.32-3.896,4.199-4.899,4.5
		c-0.688-1.022-1.15-1.842-1.076-1.862c0.194-0.054,1.198,0.504,1.636,0.212c0.437-0.292,0-1.435,0.227-1.648
		s0.859-0.159,0.696-0.798c-0.161-0.638-0.875-1.329-0.275-1.223c0.601,0.107,2.172-1.461,1.637-1.354
		c-0.534,0.106-2.042,0.08-3.808-1.25c-1.646-1.239-2.518-4.348-2.63-4.764c0.366-0.014,0.711-0.102,0.767-0.285
		c0.098-0.32-0.26-1.276,0.032-1.356c0.292-0.08,1.621-0.717,1.459-1.195c-0.162-0.479-1.2-0.984-0.486-0.957
		c0.713,0.025,2.123-1.381,1.767-1.728c-0.357-0.346-2.188,0.293-4.376-2.021c-2.187-2.313-2.949-5.103-2.398-4.756
		c0.551,0.344,1.491,0.239,1.232-0.134c-0.259-0.372-0.162-0.744-0.162-0.744c0.47,0.16,0.826-0.398,0.826-0.398
		c-0.34-0.026-0.486-0.452-0.486-0.452c0.714-0.054,1.021-0.904,1.021-0.904c-1.896,0.079-3.564-4.731-3.564-4.731
		c0.437-0.213,1.085-1.196,0.859-1.249c-0.227-0.053-0.423-0.452-0.423-0.452c0.681-0.876,0.924-2.577,0.924-2.577
		c-0.907,0.77-1.629,0.318-2.115-0.438c-0.394-0.614-1.086-3.642-1.334-4.764l-0.634-0.522l-0.477,0.393
		c-0.658,7.928-4.021,3.984-3.988,5.25c0.032,1.303,1.044,2.141,1.134,2.407c0.09,0.265-0.194,0.757-0.194,1.141
		c0,0.386,0.795,1.17,0.795,1.17c-0.974,5.821-4.506,3.296-4.36,4.226c0.146,0.93,1.427,1.834,1.54,2.18
		c0.114,0.345-0.373,0.372-0.162,0.851c0.21,0.478,1.248,0.504,1.248,0.504s0.048,1.435-1.297,4.545
		c-1.345,3.109-4.44,3.4-5.105,3.347c-0.664-0.053-0.437,0.878-0.437,0.878c0.469,1.435,2.479,1.648,2.431,2.26
		c-0.049,0.61-0.487,1.01-0.292,1.435c0.194,0.425,1.636,0.479,1.636,0.479c-1.941,2.674-3.51,3.957-4.705,4.612
		c-2.083-2.152-4.327-5.527-4.147-5.573c0.263-0.067,1.618,0.626,2.208,0.264c0.59-0.364,0-1.783,0.306-2.046
		c0.307-0.263,1.159-0.197,0.94-0.989c-0.219-0.792-1.18-1.65-0.372-1.518c0.808,0.133,2.929-1.814,2.208-1.681
		c-0.721,0.13-2.753,0.098-5.136-1.552c-2.222-1.538-3.398-5.397-3.546-5.915c0.493-0.018,0.957-0.126,1.033-0.354
		c0.13-0.396-0.35-1.583,0.043-1.682c0.394-0.099,2.186-0.89,1.967-1.485c-0.219-0.594-1.618-1.221-0.656-1.187
		c0.285,0.009,0.65-0.146,1.013-0.367c0.85,0.504,2.272,1.109,3.191,0.974c1.043-0.18,2.094,0.215,2.694,1.103
		c0.372-0.292,0.678-0.661,0.868-1.072c0.199-0.431,0.5-1.127,0.736-1.812c-0.275-0.254-0.508-0.559-0.68-0.926
		c-0.182-0.385-0.277-0.775-0.292-1.159c-0.623-0.653-1.13-1.277-1.317-2.394c-0.123-0.738,0.053-1.486,0.514-2.085
		c0.784-1.013,1.764-1.101,2.906-1.05c0.083,0.004,0.316,0.019,0.396-0.011c0.136-0.092,0.263-0.368,0.368-0.678
		c-0.344-0.526-0.575-1.117-0.575-1.758c0-0.182,0.013-0.34,0.037-0.49c-0.586-0.834-0.966-1.651-0.997-2.845
		c-0.022-0.862,0.323-1.684,1.007-2.235c0.767-0.621,1.653-0.713,2.579-0.527c0.005,0.001,0.01,0.002,0.015,0.003
		c0.279-0.708,0.44-2.081,0.483-2.559l0.095-1.091l2.928-2.265l2.925,2.263l0.203,0.865c0.165,0.701,0.339,1.402,0.526,2.096
		c0.042,0.155,0.089,0.338,0.141,0.529l3.813-3.039l-0.915,6.327c-0.089,0.62-0.265,1.31-0.519,1.969
		c0.181,0.742-0.004,1.541-0.4,2.244c0.306,0.601,0.669,1.219,0.977,1.536l3.426-0.136l-0.659,1.709l0.893,0.064
		c1.715-2.923,4.269-7.303,4.66-7.582c0.567-0.405,5.003-3.874,5.003-3.874s-2.632,6.307-2.787,6.938
		c-0.154,0.63,0.052,3.242,0.31,2.972c0.257-0.27,4.696-11.713,5.006-12.433c0.309-0.722,2.477-2.882,2.477-2.882
		s-1.584,4.899-3.654,11.325l0.753-0.625l2.831,2.347l0.016,0.073l8.154-26.727c0,0,11.766,17.115,13.622,20.178
		c1.857,3.063,9.702,5.766,9.702,5.766s3.097,5.045,4.128,6.487c1.033,1.44,5.781,2.882,6.606,5.225l2.682,13.101
		c3.517-1.341,8.091-4.058,11.152-6.443c-2.867-5.5-4.894-9.648-4.989-10.476c-0.325-2.769-1.097-22.301-1.097-22.301
		s5.072,19.342,6.122,20.359c1.039,1.008,6.777,5.499,7.305,6.646c0.488-0.309,0.98-0.61,1.479-0.901l-2.722-8.375l0,0
		c-0.225-0.469-0.417-0.942-0.577-1.417l-0.003-0.007L214.376,154l1.121-2.235l-3.521-11.735l0.64-0.799l7.204,10.698l0.239-0.638
		l-0.56-1.836l0.801-3.033l2.076,1.458c-3.415-6.059-9.229-15.787-9.229-15.787s0.092,8.534-0.182,7.975
		c-0.274-0.557-9.228-19.141-9.958-20.895c-0.73-1.754,0-3.191-0.73-6.063c-0.731-2.869-6.215-9.968-6.215-12.041
		c0-2.074,0.915-5.184,0.366-7.498c-0.548-2.312-3.564-13.158-4.478-14.435c-0.913-1.275-2.558-4.387-3.836-3.111
		c-1.278,1.276-9.868,5.741-11.696,9.409c-1.827,3.667-11.876,8.772-13.705,12.122c-1.827,3.349-3.837,8.454-7.127,14.833
		c-3.289,6.38-34.901,35.57-36.911,38.76c-1.61,2.555-3.103,5.519-5.042,8.893c1.151,0.207,2.146,0.01,3.164,0.862
		c0.287,0.24,0.52,0.532,0.687,0.864c0.846,1.675-0.232,3.278-1.521,4.313c0.027,1.273-0.907,2.323-2.059,3.017
		c-0.014,0.234-0.061,0.487-0.167,0.79c-0.078,0.22-0.175,0.418-0.292,0.596c0.009,0.017,0.019,0.033,0.027,0.05
		c-0.757-0.333-1.596-0.86-2.48-1.719c-2.951-2.872-3.979-6.336-3.235-5.907c0.743,0.428,2.012,0.297,1.661-0.165
		c-0.35-0.461-0.218-0.925-0.218-0.925c0.634,0.199,1.115-0.495,1.115-0.495c-0.458-0.031-0.655-0.561-0.655-0.561
		c0.961-0.065,1.377-1.122,1.377-1.122c-2.558,0.1-4.809-5.871-4.809-5.871c0.591-0.264,1.465-1.486,1.158-1.552
		c-0.306-0.066-0.567-0.56-0.567-0.56c0.917-1.089,1.246-3.2,1.246-3.2c-1.224,0.957-2.197,0.396-2.853-0.544
		c-0.533-0.762-1.466-4.52-1.8-5.912l-0.855-0.648l-0.644,0.488c-0.886,9.841-5.421,4.945-5.378,6.519
		c0.043,1.616,1.41,2.655,1.53,2.985c0.119,0.331-0.262,0.94-0.262,1.418c0,0.479,1.072,1.453,1.072,1.453
		c-1.313,7.225-6.078,4.089-5.881,5.245c0.198,1.154,1.924,2.276,2.076,2.704c0.154,0.43-0.502,0.463-0.217,1.057
		c0.284,0.593,1.683,0.628,1.683,0.628s0.065,1.78-1.749,5.641c-1.814,3.859-5.99,4.222-6.886,4.157
		c-0.896-0.067-0.589,1.088-0.589,1.088c0.633,1.782,3.344,2.045,3.278,2.805c-0.065,0.759-0.656,1.253-0.394,1.781
		c0.263,0.528,2.208,0.594,2.208,0.594c-7.389,9.37-10.864,5.114-9.88,7.787c0.983,2.673,4.393,2.276,4.109,3.2
		c-0.284,0.923-1.792,1.319-1.05,1.748c0.743,0.429,2.391,0.224,2.391,0.224c0.158,1.634-0.328,3.47-2.412,5.021
		c-1.576,1.175-2.732,1.547-3.591,1.548c-0.234-0.639-0.373-1.164-0.409-1.307c0.297-0.015,0.577-0.089,0.623-0.248
		c0.079-0.279-0.211-1.112,0.026-1.182c0.237-0.069,1.317-0.625,1.185-1.042c-0.131-0.416-0.974-0.854-0.395-0.832
		c0.581,0.022,1.726-1.204,1.437-1.505c-0.29-0.3-1.778,0.255-3.558-1.757c-1.778-2.014-2.397-4.443-1.949-4.143
		c0.448,0.3,1.211,0.208,1-0.116c-0.21-0.324-0.131-0.647-0.131-0.647c0.381,0.139,0.671-0.347,0.671-0.347
		c-0.276-0.024-0.396-0.394-0.396-0.394c0.581-0.047,0.831-0.788,0.831-0.788c-1.541,0.071-2.898-4.116-2.898-4.116
		c0.356-0.187,0.882-1.043,0.698-1.088c-0.185-0.047-0.342-0.395-0.342-0.395c0.553-0.762,0.751-2.244,0.751-2.244
		c-0.737,0.671-1.324,0.277-1.72-0.381c-0.32-0.535-0.883-3.17-1.084-4.147l-0.516-0.455l-0.388,0.343
		c-0.533,6.902-3.267,3.467-3.24,4.571c0.026,1.134,0.85,1.862,0.922,2.094c0.071,0.231-0.159,0.658-0.159,0.995
		c0,0.335,0.645,1.018,0.645,1.018c-0.79,5.067-3.662,2.869-3.542,3.68c0.118,0.81,1.158,1.596,1.252,1.896
		c0.09,0.302-0.304,0.326-0.133,0.742c0.171,0.417,1.015,0.439,1.015,0.439s0.04,1.25-1.054,3.957
		c-1.094,2.708-3.61,2.963-4.15,2.916c-0.539-0.046-0.355,0.763-0.355,0.763c0.381,1.25,2.016,1.435,1.976,1.967
		c-0.04,0.532-0.395,0.88-0.236,1.25c0.157,0.37,1.33,0.416,1.33,0.416c-4.452,6.571-6.548,3.587-5.954,5.461
		c0.592,1.875,2.648,1.597,2.476,2.244c-0.17,0.648-1.08,0.927-0.632,1.227c0.448,0.3,1.44,0.157,1.44,0.157
		c0.096,1.146-0.198,2.434-1.455,3.522c-3.095,2.685-3.517-0.58-3.74,0.485c-0.225,1.065,0.817,2.477,0.632,2.939
		c-0.186,0.462-1.002-0.3-0.752,0.439c0.25,0.74,1.753,0.996,1.793,1.295c0.039,0.301-0.725,0.74-0.488,1.136
		c0.236,0.393,1.581,0.461,1.542,0.901c-0.041,0.439-0.587,2.929-3.215,4.65c-2.629,1.724-3.538,0.149-3.965,0.706
		c-0.428,0.555,0.105,1.933,0.625,2.463c0.521,0.532,1.344,0.87,0.975,1.249c-0.369,0.384-0.737,1.623,0.619,2.304
		c0.067,0.034,0.117,0.063,0.178,0.096H0v117.763c172.99-34.497,339.549-33.912,500,0V228.631H440.246z M193.618,114.022
		c0.583,0.506,6.066,4.012,6.237,5.207c0.169,1.194,0.786,10.011,0.786,10.011s2.644,1.031,2.637,1.923
		c-0.007,0.886-1.259,14.724-1.551,12.98c-0.293-1.748-0.381-2.867-1.735-6.29c-1.354-3.418-9.388-16.68-9.934-19.693
		c-0.547-3.014-1.721-31.95-1.721-31.95S193.034,113.515,193.618,114.022 M56.732,324.991c-6.26,0.873-9.365,1.327-15.517,2.275
		c-2.87-12.375-5.745-24.751-8.628-37.123c-0.149,12.854-0.299,25.707-0.449,38.563c-5.803,0.946-8.679,1.436-14.369,2.449v-87.272
		h15.355c3.217,12.496,6.422,24.995,9.622,37.495c0.224-12.498,0.448-24.997,0.673-37.495h15.354
		C58.093,270.918,57.413,297.955,56.732,324.991 M96.281,259.187c-4.909,0.105-7.361,0.162-12.26,0.276
		c-0.186,5.905-0.278,8.858-0.462,14.765c4.581-0.21,6.876-0.311,11.475-0.506c-0.186,5.827-0.278,8.74-0.463,14.566
		c-4.603,0.29-6.898,0.439-11.477,0.752c-0.214,6.849-0.322,10.272-0.537,17.12c5.374-0.504,8.073-0.746,13.494-1.209
		c-0.194,6.111-0.291,9.167-0.485,15.277c-10.562,1.126-21.11,2.384-31.64,3.783c0.739-26.711,1.479-53.42,2.218-80.129h30.623
		C96.573,250.004,96.476,253.064,96.281,259.187 M164.006,216.179c0.338,0.046,0.979-0.09,1.173-0.471
		c0.655,0.543,1.578,0.517,1.473,0.862c-0.135,0.452-0.858,0.646-0.502,0.855c0.357,0.209,1.147,0.109,1.147,0.109
		c0.075,0.798-0.159,1.694-1.157,2.453c-0.044,0.034-0.083,0.057-0.126,0.088C164.77,218.506,163.754,216.144,164.006,216.179
		 M163.636,314.686c-9.576,0.551-14.347,0.863-23.832,1.563c-2.195-12.513-3.595-25.108-4.859-37.742
		c-1.9,12.891-4.046,25.743-6.155,38.6c-9.378,0.767-14.041,1.187-23.286,2.102c-2.018-25.104-3.979-50.215-5.9-75.325h17.841
		c0.395,8.63,0.796,17.263,1.203,25.894c0.392,8.306,0.789,16.61,1.193,24.916c1.359-17.023,3.924-33.94,6.5-50.81h19.071
		c0.214,2.106,0.729,10.032,1.581,23.719c0.519,9.087,1.051,18.174,1.594,27.26c1.471-17.077,3.448-34.029,5.983-50.979h17.841
		C169.572,267.495,166.644,291.095,163.636,314.686 M189.211,313.432c-0.033-4.038-0.049-6.057-0.083-10.094
		c4.72-15.19,9.36-30.402,13.91-45.646c-5.045,0.032-7.566,0.053-12.609,0.094c-0.053-5.563-0.079-8.343-0.132-13.903h32.196
		c0.191,5.483,0.288,8.225,0.479,13.709c-4.156,13.82-8.457,27.598-12.844,41.349c5.709-0.125,8.565-0.176,14.279-0.257
		c0.191,5.482,0.287,8.226,0.479,13.709C212.99,312.603,201.099,312.947,189.211,313.432 M332.702,217.534
		c0,0,0.791,0.1,1.146-0.109c0.356-0.209-0.367-0.403-0.502-0.855c-0.105-0.345,0.817-0.318,1.474-0.862
		c0.196,0.38,0.838,0.517,1.174,0.471c0.252-0.035-0.765,2.328-2.01,3.897c-0.043-0.031-0.081-0.055-0.126-0.089
		C332.858,219.229,332.626,218.332,332.702,217.534 M229.904,312.312c-0.886-22.811-1.771-45.62-2.656-68.429h30.625
		c0.346,5.465,0.518,8.198,0.864,13.664c-4.956-0.005-7.433-0.006-12.39-0.004c0.277,5.178,0.417,7.767,0.694,12.945
		c4.686-0.005,7.028-0.003,11.711,0.006c0.327,5.198,0.488,7.797,0.813,12.992c-4.728-0.015-7.095-0.017-11.828-0.011
		c0.322,6.006,0.483,9.008,0.806,15.013c5.625-0.011,8.436-0.005,14.053,0.025c0.35,5.466,0.525,8.2,0.876,13.666
		C252.284,312.104,241.092,312.147,229.904,312.312 M293.622,312.675c-0.826-4.955-1.238-7.434-2.059-12.386
		c-2.722-0.058-4.086-0.084-6.814-0.132c-0.067,4.925-0.104,7.387-0.18,12.307c-7.95-0.16-11.938-0.217-19.927-0.275
		c1.781-22.761,3.424-45.526,4.933-68.306h26.546c5.594,23.162,11.274,46.304,17.021,69.429
		C305.365,313.008,301.459,312.88,293.622,312.675 M316.37,313.441c-2.209-23.187-4.419-46.373-6.627-69.559h18.366
		c1.911,18.786,3.821,37.572,5.732,56.36c4.553,0.199,6.823,0.305,11.351,0.53c0.593,5.694,0.889,8.541,1.479,14.234
		C336.572,314.415,326.479,313.895,316.37,313.441 M377.002,317.234c-0.936-5.307-1.405-7.958-2.341-13.252
		c-2.617-0.181-3.929-0.269-6.557-0.438c0.104,5.2,0.156,7.797,0.26,12.986c-7.602-0.596-11.435-0.868-19.145-1.362
		c0.689-23.761,1.326-47.521,1.934-71.285h26.546c6.053,24.991,11.993,50.007,17.798,75.056
		C388.165,318.208,384.463,317.867,377.002,317.234 M422.469,321.941c-3.955-12.06-8.004-24.081-12.143-36.078
		c1.014,11.665,2.027,23.329,3.043,34.994c-5.884-0.678-8.851-0.999-14.831-1.611c-2.406-25.121-4.812-50.242-7.217-75.363h15.354
		c4.454,11.696,8.817,23.421,13.086,35.185c-0.931-11.728-1.859-23.455-2.791-35.185h15.355c1.746,26.677,3.491,53.353,5.239,80.029
		C431.589,323.088,428.567,322.693,422.469,321.941 M482.227,305.228c0,7.836-0.266,13.033-0.784,15.586
		c-0.519,2.552-1.419,4.455-2.701,5.71c-1.284,1.255-2.869,2-4.767,2.246c-1.9,0.245-4.772,0.026-8.67-0.63
		c-8.227-1.379-12.417-2.033-20.931-3.267c-1.56-26.996-3.118-53.994-4.676-80.99h13.74c8.868,0,14.883,0.484,18.018,1.478
		c3.135,0.994,5.518,2.644,7.144,4.946c1.625,2.303,2.63,4.881,3.031,7.708c0.399,2.83,0.596,8.381,0.596,16.646V305.228z"/>
	<path d="M464.552,268.802c-0.105-3.823-0.273-6.278-0.501-7.361c-0.229-1.083-0.708-1.888-1.434-2.407
		c-0.728-0.522-2.079-0.808-4.049-0.856c0.651,18.32,1.301,36.642,1.952,54.963c2.415,0.319,3.872-0.11,4.391-1.303
		c0.517-1.194,0.701-4.608,0.546-10.24C465.155,290.665,464.853,279.734,464.552,268.802"/>
	<path d="M283.548,287.992c2.604,0.036,3.906,0.056,6.507,0.098c-1.974-9.588-3.593-19.242-5.223-28.894
		C284.22,268.779,283.626,278.385,283.548,287.992"/>
	<path d="M366.525,290.639c2.53,0.127,3.792,0.193,6.313,0.329c-2.179-10.232-4.127-20.514-5.979-30.81
		C366.544,270.31,366.274,280.481,366.525,290.639"/>
</g>
<g>
</g>
<g>
</g>
<g>
</g>
<g>
</g>
<g>
</g>
<g>
</g>
<g>
</g>
<g>
</g>
<g>
</g>
<g>
</g>
<g>
</g>
<g>
</g>
<g>
</g>
<g>
</g>
<g>
</g>
</svg>
