<?xml version="1.0" encoding="utf-8"?>
<!-- Generator: Adobe Illustrator 16.0.3, SVG Export Plug-In . SVG Version: 6.00 Build 0)  -->
<!DOCTYPE svg PUBLIC "-//W3C//DTD SVG 1.1//EN" "http://www.w3.org/Graphics/SVG/1.1/DTD/svg11.dtd">
<svg version="1.1" id="Ebene_1" xmlns="http://www.w3.org/2000/svg" xmlns:xlink="http://www.w3.org/1999/xlink" x="0px" y="0px"
	 width="128px" height="128px" viewBox="0 0 128 128" enable-background="new 0 0 128 128" xml:space="preserve">
<circle fill="#69B9B6" cx="64" cy="64" r="64"/>
<g>
	<path fill="#345C5A" d="M120.16,59.967c-0.063-1.262-0.44-2.898-0.251-4.222c-2.144-8.884-6.492-17.452-14.555-23.185
		c-2.142-1.828-4.978-2.394-6.806-4.663c-1.766,0.44-3.968-0.693-5.858-1.196c-0.315-0.316-1.008,0.314-1.262-0.316
		c-0.314,0.063-0.943-0.181-1.322-0.56L91.179,23h-8.066c0.063-1-1.573-0.259-2.267-0.64c0.314-0.126,0.126-0.381,0.189-0.57
		c-0.694-0.882-1.828-0.223-2.584,0.029c-0.883-0.063-1.639,0.707-2.395,0.456c-0.755,1.008-1.703-0.057-2.457,0.951
		c-1.825-0.376-3.339,1.077-4.979,1.644c-0.69,0.189-1.448,0.126-1.954,0.757c-1.006-0.442-1.51,1.135-2.457,1.198
		c-2.014-1.575-2.141,2.205-3.905,2.584l-0.125-0.125c-0.063-0.504,0.565-0.758,0.754-1.073c-0.062-0.754-0.882-0.251-1.258-0.628
		l-4.032,4.536c-0.82,0.693-1.451-0.692-2.143,0l-2.142,2.898c-0.252-0.062-0.567,0.125-0.756-0.189l-0.754,1.26
		c-0.946,0-0.695,1.701-1.199,2.521c-3.402,2.205-6.554,5.041-10.396,6.047c-0.944,0.442-1.953,1.135-2.897,0.946
		c0.818-1.072,2.017-1.576,2.709-2.71c-2.521,1.449-4.663,3.024-7.12,4.662l0.19,0.125c-0.19,0.189-0.38,0.505-0.631,0.505
		c0.062-1.26,1.915-2.458,1.726-3.78C32.104,44.467,32,44.718,32,44.655v0.758c-2,0.503-0.716,1.826-1.851,2.583
		c-0.379-0.128-0.107-0.379-0.107-0.568l-1.878,2.521c-0.253-1.449,0.981-3.087,1.044-4.222c-0.252,0.189-0.265,0.441-0.516,0.631
		c-0.254-0.125-0.071-0.441-0.135-0.631c-1.26,3.34-2.459,6.679-3.027,10.27c-0.945,1.702-2.458,2.709-2.9,4.536
		c-3.654,2.584-7.119,6.239-10.396,9.073c-1.701,2.143-5.419,4.222-4.411,6.994c7.057-4.725,14.553-9.009,22.366-12.097
		c1.638,1.01,3.339,2.269,5.167,2.393c1.009,0.189,1.701-0.251,2.583,0.317l-0.314,0.315c1.764,2.204,4.346,3.528,6.048,5.859
		l2.897-1.954l3.279,2.458c-0.253,0.755-0.128,2.016,0.629,2.708l4.851,1.197c2.771,0.188,4.978,0.377,7.245-0.756
		c1.071,0.188,1.891-0.693,2.71-0.314c1.448-1.827,3.969-2.206,5.922-3.466c1.828,1.574,2.773,3.78,4.097,5.733l-1.072,1.196
		c-0.378,4.031-0.882,7.938-2.709,11.341l-7.435,1.827c-1.765,1.071-4.034,1.702-5.167,3.339c0.504,0.883,1.953-0.441,2.899,0
		c2.834-1.448,6.173-1.7,8.945-3.464c1.197,0.44,1.829-1.324,3.024-1.513c0.251-1.322,1.576-1.574,2.269-2.585
		c0.252-3.024,2.647-5.229,3.275-8.188c0.063-1.512,0.693-3.15-0.252-4.535c-0.692,0.564-1.702,0.881-2.268,1.069
		c0-1.26-0.756-2.457-0.944-3.464c0.44-0.126,0.252,0.629,0.63,0.125l0.314,0.315c0.126,0,0.315,0.063,0.44-0.127l-1.951-2.456
		l0.126-0.127c2.709,2.27,5.292,4.979,5.292,8.442c0.378,1.639,0.378,3.466,1.197,4.854l2.707-1.829
		c0.254,2.395-1.195,4.853-2.078,7.12c0,1.955-2.142,2.142-2.898,3.465c-2.709,0.252-5.229,1.387-7.873,1.387
		c-0.885,0.504-2.271,0.567-2.712,1.511c0.189,0.064,0.505-0.125,0.632,0.127c-0.191,0.251-0.442,0.251-0.632,0.504
		c0.632,0.883,1.64,0.567,2.458,0.756c3.656-1.196,7.812-1.26,11.34-2.897c0.192-0.254-0.252-1.071,0.568-0.757
		c0.315,0.503,1.323,0.19,1.069,1.07c-0.313,1.072-0.942,2.018-2.14,2.271c-0.253,0.377-0.064,1.196-0.126,1.511
		c-1.828,0.126-3.403-0.189-5.168-0.314c-3.905-0.567-7.37,0-11.34-0.63l-0.441,0.504c-1.197-0.188-2.772-0.378-3.906,0.126
		c-1.325-0.567-0.568,1.07-1.197,1.512c-0.189,1.576,1.89,1.324,2.834,1.953c3.591,0.819,7.436,0.882,11.025,1.701l0.759,0.756
		l0.187-0.188l0.317,0.313c5.166,0.126,11.089,1.322,16.317,1.513c4.536-0.439,8.632,1.134,12.853-0.758
		c-0.063-0.944,0.692-0.691,0.44-1.068c0.316-1.072-0.44-2.082-1.07-3.024c-1.008-0.693-1.954-1.071-3.024-0.883
		c-0.314,0.063-1.134-0.063-1.323-0.442l-2.772-0.188c-0.504-0.189-3.402-0.694-4.661-0.568c-0.441,0.379-1.199-0.126-1.386-0.188
		c-1.388,0.441-2.898-0.189-4.221,0c0.503-0.755-0.127-1.89-0.127-2.835c-0.443-0.063-0.884,0.125-1.198-0.188
		c1.008-1.954,2.143-3.843,3.024-5.859c1.828-1.576,2.332-3.592,4.222-4.854l-1.387,0.128l-1.071-6.175
		c-0.063-1.261-1.323-2.583-0.439-3.654c-0.82-0.945-0.82-2.332-1.198-3.466c0.064-2.016-4.031-4.221-0.756-5.608
		c0.63,1.01,2.08,1.703,1.511,3.215c1.954,3.907,4.412,7.813,3.151,12.853c1.513-0.945,1.892-2.772,2.584-4.284
		c0.567-2.393,0.504-5.796-1.64-7.56c0.379-0.441,0.947-0.82,1.199-1.324l1.07,0.567c1.134-0.757,1.07,1.701,2.079,1.701
		c0.505,0.566,0.63,1.574,0.756,2.395c-0.566,0.441-0.441,0.755-0.882,1.196c0.882,1.449,1.274,3.655,1.46,5.041
		C98.941,82.837,97,84.537,97,86.553v1.071l2.131-0.756c1.324-1.26,1.41-3.402,2.293-5.167l0.169,0.315l0.997,10.144l3.998-1.069
		l1.241-5.293l0.433-0.128c0-1.319,1.192-2.33,0.751-3.653c-0.377,0.441-0.129,1.135-0.633,1.513
		c-0.126-0.883,0.188-1.889,0.313-2.835c1.197-0.125,2.207-1.071,3.34-0.756c0.441,2.078-0.252,3.717,0,5.731
		c0.504-0.439,1.196-0.691,1.512-1.385c2.018-3.779-0.25-7.812,1.324-11.656c1.07,1.513-0.126,3.527,0.504,5.04l0.125-0.188
		c1.134,0.251,0,1.576,0.126,2.458l2.269-1.513c0.504-0.819,0.188-2.27,1.514-2.27C120.601,71.118,120.411,65.133,120.16,59.967z
		 M79.08,30.166l0.102-0.441c1.385,0.188,1.818-0.44,3.818,0v0.566c5,0.882,11.744,5.481,18.422,6.993l1.839,1.071
		c-0.187,0.44-0.842,0.755-1.095,1.196c-5.23-2.332-11.163-4.598-16.962-6.237c-2.456-0.819-5.203-0.881-7.469-2.079L79.08,30.166z
		 M83.429,35.016C73.662,33,64.653,37.348,56.399,41.191l-2.457,1.512c4.852-4.599,11.089-8.632,17.704-10.269l2.897,0.125
		c0.063,0.251,0.063,0.441,0.254,0.629c0.566,0.252,0.756-0.378,1.07-0.629C78.704,32.686,81.035,33.945,83.429,35.016z
		 M57.722,30.794c-1.07,1.449-1.322,3.781-3.339,4.347C55.075,33.378,56.588,32.182,57.722,30.794z M43.797,46.167
		c1.45,0.189,2.961,0.379,4.412,0c0.565-0.252,0-0.755,0-1.197c0.565-1.071,3.653,0.062,2.268-1.828
		c-0.379,0.127-0.629,0.442-1.072,0.315c0.063-0.125-0.063-0.188-0.126-0.315c1.009-0.377,1.891-2.016,3.024-1.197
		c1.073-0.945,3.024-1.575,3.466-3.15c-0.316-0.819-0.819,0.252-1.198-0.315c0.756-0.944,1.45-2.645,2.583-2.268
		c3.275-2.017,6.869-4.852,9.512-7.875l0.317,1.073c1.323-0.442,2.71-0.884,4.031-1.387c0.064,0.377-0.126,0.882,0.315,1.071
		l5.292-1.071c0.505,1.764-1.639,0.692-2.079,1.828c-6.741,1.258-12.601,5.48-18.333,9.512l-6.176,5.796
		c0.379,0.567-0.126,1.198-0.187,1.765c-4.034-0.567-9.641-0.252-13.611,0.314C38.316,46.231,41.595,46.798,43.797,46.167z
		 M46.255,65.572c-0.755-0.944-1.701-1.387-2.458-2.267c-2.203,1.701-4.787-1.135-7.054-1.828l-3.531-0.629
		c0.252-0.757-0.566-2.772,1.072-2.71c0.063-0.44-0.44-0.755-0.757-0.88c-0.629,0.88-3.024-0.694-2.583,1.322
		c-4.85,2.394-9.198,6.049-13.86,8.758c2.582-2.393,6.174-4.788,9.639-7.246c0.882-0.692,0.189-2.079,0.63-3.022
		c1.324-2.898,3.401-5.483,4.664-8.444c1.07,0,1.384-2.393,2.268-1.071c-0.82,0.379-0.19,1.576-0.566,1.954
		c2.266,0.691,5.039-0.692,7.684,0l0.125-0.126l8.192-1.198l0.315-0.316c0.505,1.009,1.324,0,1.953,0
		c0.818,0.505,1.388,1.199,1.954,1.828l1.07-1.071c0.251-0.125,0.647,0.567,0.521,1.071C53.52,49.948,51,49.066,49,50.452v0.252
		c0,0-1.529,0.252-1.782,0.945c-0.126,0.503,0.148,0.944,0.59,1.071c3.024-0.378,6.091,0.566,8.863,0.882l-0.262,0.631
		c-2.71-0.38-6.245-2.018-8.828-0.317c2.206,0.82,4.419,1.45,6.419,1.828v1.765c-3-1.261-7.684-3.024-12.662-2.521
		c-0.566,0.566,0.064,1.197-0.062,1.765c3.593,1.952,7.94,2.205,11.658,3.779c-0.063,0.316-0.379,0.504-0.568,0.757
		c-2.331-0.881-4.441-2.144-7.339-1.639l-0.489,0.441c0.756,1.071,2.211,0.945,3.221,1.702c-0.378,0.063-0.627,0.504-0.942,0.756
		l1.516,2.079C47.893,65.194,47.011,65.385,46.255,65.572z M55.013,74.898l1.639-1.323l2.142,1.07
		C57.344,74.708,56.336,75.023,55.013,74.898z M57.281,70.677c-1.321,0.19-2.583-2.33-3.465-0.757l6.489,4.41
		c-1.008,0.189-2.458-0.818-3.15-1.511c-2.647-0.694-5.293-2.081-6.994-4.537c-0.063-0.441,0.457-1.008-0.11-1.198
		C49.797,67.022,50,67.274,50,67.527v0.439c0-0.251-1.022-0.313-1.272-0.755c2.204-2.647,4.053,1.574,6.386,1.638
		c2.457,1.07,4.674,2.583,6.88,4.095c0.882,0.315,1.992-1.26,2.242,0.188C61.717,75.088,59.549,71.621,57.281,70.677z
		 M66.038,71.874c-1.449-0.314-2.583-1.765-3.905-1.954c-1.324-1.259-3.087-1.384-4.411-2.583c-1.448-0.756-3.15-0.818-4.346-2.269
		l0.125-0.44c3.465,3.212,8.126,3.529,11.782,6.239c0.252-0.694,1.448,0,1.701-0.632c0.441,0.315,0.881,0.632,1.323,0.883
		C67.613,71.56,66.921,71.936,66.038,71.874z M99.034,57.167c0.056,0.22,0.106,0.439,0.145,0.656l-0.188-0.566
		C99.001,57.222,99.021,57.199,99.034,57.167c-0.383-1.512-1.075-3.113-1.241-4.763c1.449,0.881,2.206,2.521,3.213,3.591
		C100.339,56.421,99.385,56.329,99.034,57.167z M91.619,41.065c-0.505,0-1.071-0.127-1.386,0.44l0.188,0.629
		c2.016,1.639,4.348,3.151,6.048,4.979c-0.944,0.503-2.393,0.565-2.584,1.828l3.025,2.708c-1.574,0.189-3.276,0.755-4.094,2.08
		l0.125,0.756c-1.828-1.199,1.322-3.528-1.764-3.592c-0.693-0.63-0.504-2.016-1.701-1.951c-1.891,2.329-4.222-0.126-6.365,0.566
		c-0.754-0.945-1.7-0.063-2.519-0.756l-0.316,0.315c-0.377-1.008-1.008,0.125-1.511-0.442c-0.692,0.317-1.198-0.566-1.828-0.314
		l-0.315-0.314c-0.063,0.125-0.188,0.188-0.125,0.314c-0.189-0.063-0.378-0.631-0.756-0.442l-0.188,0.128l0.794,0.188
		C75.844,48.437,76,46.924,75,47.679v-0.125c-3-0.126-3.632-0.629-5.646-0.44c-3.088-0.63-6.1-0.126-8.746,0.125
		c6.869-1.826,14.656-2.834,22.089-1.512c0.314,0.189,0.557,0.441,0.997,0.315l0.401-0.628c1.322,0.567,0.298,2.266,1.052,3.212
		c1.451-0.882,3.961-0.629,4.528-2.457c0.125-1.513-1.267-2.709-2.462-3.464c-1.828-1.512-4.413-1.766-6.934-1.828
		c-7.685-0.377-16.13,1.134-23.313,2.458c0.062-0.125,0.188-0.189,0.188-0.315c-0.756-0.378-2.016,0.315-2.143,0.315
		c6.614-3.719,13.672-6.49,21.926-6.364c-0.251,0.379-1.07,0.442-1.196,1.072c1.763,0.694,4.095-0.315,6.048,0.441
		c1.263-0.944,2.962-1.197,4.094-2.142c5.735,2.709,11.72,7.498,15.375,12.413C98.108,46.041,95.147,42.829,91.619,41.065z
		 M97.037,41.631c-2.519-2.017-4.977-4.347-7.875-5.544c4.977,1.513,9.828,3.401,13.924,6.93l0.316,1.512L97.037,41.631z
		 M101.888,45.413l2.143,0.755c0.378,0.882,0.757,1.7,1.007,2.584L101.888,45.413z M109.45,61.289
		c0.062-1.574-1.263-2.269-1.197-3.906l-0.315-0.314l-0.631,0.44c-0.818-1.514-1.512-3.15-2.71-4.538
		c1.703-0.063,3.465,0.504,3.782,2.27C108.504,57.383,110.016,59.587,109.45,61.289z M112.158,72.188l-1.07-6.049
		C113.294,66.895,112.032,70.928,112.158,72.188z M115.813,66.014c-0.692-2.772-1.448-5.859-2.897-8.504l-0.128,0.188
		c-1.572-3.464-3.527-7.182-4.726-11.026l0.191-0.756c1.826,1.512,4.662,2.521,5.291,5.104c-1.07,0.692-1.89,1.701-1.512,3.024
		l0.315,0.441c0.062-0.065,0.188-0.125,0.126-0.251c0.629,0.44,1.324,0.944,1.639,1.762c1.7,2.457,1.826,5.355,1.7,8.19
		l-0.189-0.125C115.433,64.628,116.001,65.257,115.813,66.014z"/>
	<path fill="#345C5A" d="M97.353,79.938c-1.197,0.251-2.52,0.503-3.341,1.512c-0.629,2.456-1.007,5.103-2.583,7.246
		c-0.06,0.565-0.754,1.007-0.754,1.512c1.009,0.063,2.52-0.63,3.337-1.387C95.337,85.924,97.604,83.278,97.353,79.938z"/>
	<path fill="#345C5A" d="M32.332,51.46c-0.819,0.63-2.08,1.133-1.828,2.456c0.441,0.883,1.577,0.883,2.457,1.072
		c1.324,0.063,1.388-1.259,1.324-2.268C33.908,51.964,33.149,51.523,32.332,51.46z M32.174,53.154
		c-0.21-0.315,0.197-0.622,0.283-0.749c0.419,0.093,0.595,0.428,0.634,0.797C33.192,53.354,32.19,53.287,32.174,53.154z"/>
</g>
<g>
</g>
<g>
</g>
<g>
</g>
<g>
</g>
<g>
</g>
<g>
</g>
<g>
</g>
<g>
</g>
<g>
</g>
<g>
</g>
<g>
</g>
<g>
</g>
<g>
</g>
<g>
</g>
<g>
</g>
</svg>
